<?xml version="1.0" encoding="UTF-8"?>
<!DOCTYPE svg PUBLIC "-//W3C//DTD SVG 1.1//EN" "http://www.w3.org/Graphics/SVG/1.1/DTD/svg11.dtd">
<!-- Creator: CorelDRAW 2020 (64-Bit) -->
<svg xmlns="http://www.w3.org/2000/svg" xml:space="preserve" width="19.283mm" height="23.6408mm" version="1.1" style="shape-rendering:geometricPrecision; text-rendering:geometricPrecision; image-rendering:optimizeQuality; fill-rule:evenodd; clip-rule:evenodd"
viewBox="0 0 1779.67 2181.86"
 xmlns:xlink="http://www.w3.org/1999/xlink"
 xmlns:xodm="http://www.corel.com/coreldraw/odm/2003">
 <defs>
  <style type="text/css">
   <![CDATA[
    .fil0 {fill:black;fill-rule:nonzero}
   ]]>
  </style>
 </defs>
 <g id="Layer_x0020_1">
  <metadata id="CorelCorpID_0Corel-Layer"/>
  <g id="_1193282380480">
   <path class="fil0" d="M811.54 2135.61l78.3 46.26 78.31 -46.26c501.87,-295.42 811.53,-832.88 811.53,-1413.07l0 -348.81 -889.84 -373.73 -889.84 370.17 0 348.83c0,583.73 309.67,1121.19 811.54,1416.6l0 0.01zm-740.35 -1715.61l818.65 -341.68 818.65 341.68 0 302.54c0,555.26 -295.42,1071.37 -775.93,1352.55l-42.72 21.36 -42.7 -24.91c-480.51,-277.63 -775.95,-793.74 -775.95,-1349l0 -302.54zm0 0z"/>
   <path class="fil0" d="M1494.92 1071.37c0,-334.58 -270.52,-605.09 -605.09,-605.09 -334.58,0 -605.09,270.51 -605.09,605.09 0,334.57 270.51,605.09 605.09,605.09 334.57,0 605.09,-270.52 605.09,-605.09zm-925.43 427.12l53.39 -302.54c7.12,-39.16 35.6,-71.19 71.19,-81.87l96.11 -32.03c35.6,-10.67 56.95,-53.39 46.27,-88.98l0 -3.56 -49.83 -131.69c0,-3.56 -3.56,-7.12 -3.56,-14.23l0 -21.36c0,-60.52 46.28,-106.78 106.78,-106.78 60.52,0 106.77,46.27 106.77,106.78l0 21.36c0,3.54 0,10.67 -3.56,14.23l-53.39 131.69c-14.23,35.59 3.57,78.31 39.16,92.54l3.56 0 96.11 32.03c35.59,10.69 64.06,42.71 71.19,81.87l60.5 302.54c-188.64,142.37 -452.03,142.37 -640.68,0l0 0zm-213.56 -427.12c0,-295.44 238.48,-533.9 533.9,-533.9 295.44,0 533.9,238.46 533.9,533.9 0,138.81 -53.39,274.05 -153.05,373.73l-46.28 -259.84c-10.67,-64.06 -56.94,-117.45 -117.45,-135.25l-96.1 -32.03 53.39 -131.7c3.56,-14.23 7.12,-24.91 7.12,-39.16l0 -24.9c0,-99.68 -78.32,-177.97 -177.97,-177.97 -99.66,0 -177.97,78.29 -177.97,177.97l0 21.36c0,14.23 3.56,28.47 7.12,39.14l53.39 131.7 -96.11 32.03c-60.52,21.36 -106.78,74.75 -117.45,135.26l-46.28 259.82c-106.78,-96.1 -160.17,-231.36 -160.17,-370.17l0 0zm0 0z"/>
  </g>
 </g>
</svg>
