<?xml version="1.0" encoding="UTF-8"?>
<!DOCTYPE svg PUBLIC "-//W3C//DTD SVG 1.1//EN" "http://www.w3.org/Graphics/SVG/1.1/DTD/svg11.dtd">
<!-- Creator: CorelDRAW 2019 (64-Bit) -->
<svg xmlns="http://www.w3.org/2000/svg" xml:space="preserve" width="44.9709mm" height="17.7288mm" version="1.1" style="shape-rendering:geometricPrecision; text-rendering:geometricPrecision; image-rendering:optimizeQuality; fill-rule:evenodd; clip-rule:evenodd"
viewBox="0 0 173416.38 68365.64"
 xmlns:xlink="http://www.w3.org/1999/xlink"
 xmlns:xodm="http://www.corel.com/coreldraw/odm/2003">
 <defs>
  <style type="text/css">
   <![CDATA[
    .str0 {stroke:#2B2A29;stroke-width:4081.01;stroke-linecap:round;stroke-linejoin:round;stroke-miterlimit:22.9256}
    .fil1 {fill:none}
    .fil2 {fill:#2B2A29}
    .fil0 {fill:black}
    .fil3 {fill:black;fill-rule:nonzero}
   ]]>
  </style>
 </defs>
 <g id="Layer_x0020_1">
  <metadata id="CorelCorpID_0Corel-Layer"/>
  <path class="fil0" d="M146735.4 17227.92c-4332.82,533.31 -7227.66,2921.45 -8948.29,5445.33 -2361.92,3463.63 -2427.47,7117.37 -886.54,11210.72 1622.3,4310.45 5466.15,9714.9 8182.45,13289.21 870.34,1145.67 2154.07,3561.96 4151.96,2227.72 1056.21,-705.68 5176.17,-6668.9 6129.8,-8195.18 1623.07,-2597.92 3883.18,-6296.77 4716.51,-9606.54 2004.45,-7961.49 -5498.54,-15336.46 -13345.89,-14371.25zm143.45 6206.15c-8103.01,1800.84 -5408.31,13600.4 2602.54,11882.08 2884.82,-618.53 5471.16,-3446.28 4598.51,-7337.56 -630.87,-2814.25 -3500.65,-5366.66 -7201.05,-4544.52zm525.6 4114.94c-2658.46,1281.8 -892.71,4672.55 1506.61,3662.61 2470.66,-1040.4 753.89,-4752.37 -1506.61,-3662.61zm691.03 16700.01c49.74,-42.8 121.08,-180.08 141.52,-136.89l3937.17 -5577.98c1208.92,-1849.81 2616.04,-4217.52 3469.03,-6503.47 2102.01,-5635.82 -2104.71,-10778.83 -7542.71,-10793.48 -5321.93,-14.27 -9782,5309.98 -7547.72,10790.01 1322.29,3243.06 5323.09,9891.52 7542.71,12221.81z"/>
  <polygon class="fil1 str0" points="124892.77,58953.83 171375.69,58953.83 171375.69,9422.99 161136.34,9422.99 161136.34,2040.7 152944.63,9422.99 124892.77,9422.99 "/>
  <polygon class="fil1 str0" points="112271.85,9411.81 72980.34,9411.81 72980.34,58943.04 87731.82,58943.04 87731.82,66324.94 94656.38,58943.04 112271.85,58943.04 "/>
  <polygon class="fil1 str0" points="60359.03,58941.49 60359.03,9411.81 14515.47,9411.81 14515.47,20322.51 2040.7,20322.51 14515.47,29051.39 14515.47,58941.49 "/>
  <path class="fil2" d="M100109.03 19590.22l5372.45 0 0 23504.64 -5372.45 0 0 -23504.64zm-20338.71 13047.42l5372.45 0 0 10457.22 -5372.45 0 0 -10457.22zm25711.15 12711.93l0 5372.45 -25711.15 0 0 -5372.45 25711.15 0zm-15733.65 -20194.87l5372.45 0 0 17940.16 -5372.45 0 0 -17940.16z"/>
  <g id="_2597566927504">
   <polygon class="fil3" points="25534.15,27285.64 51829.91,27285.64 51829.91,31445.31 25534.15,31445.31 "/>
   <polygon class="fil3" points="25534.15,35605.37 51829.91,35605.37 51829.91,39765.04 25534.15,39765.43 "/>
   <polygon class="fil3" points="25534.15,18965.52 36052.3,18965.52 36052.3,23125.58 25534.15,23125.58 "/>
   <polygon class="fil3" points="25534.15,44834.78 51829.91,44834.78 51829.91,48994.45 25534.15,48994.45 "/>
  </g>
 </g>
</svg>
