<?xml version="1.0" encoding="UTF-8"?>
<!DOCTYPE svg PUBLIC "-//W3C//DTD SVG 1.1//EN" "http://www.w3.org/Graphics/SVG/1.1/DTD/svg11.dtd">
<!-- Creator: CorelDRAW 2020 (64-Bit) -->
<svg xmlns="http://www.w3.org/2000/svg" xml:space="preserve" width="25.1674mm" height="21.3655mm" version="1.1" style="shape-rendering:geometricPrecision; text-rendering:geometricPrecision; image-rendering:optimizeQuality; fill-rule:evenodd; clip-rule:evenodd"
viewBox="0 0 790.65 671.21"
 xmlns:xlink="http://www.w3.org/1999/xlink"
 xmlns:xodm="http://www.corel.com/coreldraw/odm/2003">
 <defs>
  <style type="text/css">
   <![CDATA[
    .fil0 {fill:black;fill-rule:nonzero}
   ]]>
  </style>
 </defs>
 <g id="Layer_x0020_1">
  <metadata id="CorelCorpID_0Corel-Layer"/>
  <path class="fil0" d="M397.63 671.21l-357.52 0c-22.12,0 -40.11,-17.99 -40.11,-40.11l0 -427.54c0,-22.11 17.99,-40.11 40.11,-40.11l76.85 0c7.38,0 13.37,5.98 13.37,13.37 0,7.39 -5.98,13.37 -13.37,13.37l-76.85 0c-7.37,0 -13.37,5.99 -13.37,13.37l0 427.54c0,7.37 6,13.37 13.37,13.37l346.1 0c3.3,9.17 7.12,18.1 11.42,26.74zm-26.13 -109.71l-170.95 0c-22.12,0 -40.11,-17.99 -40.11,-40.11l0 -481.29c0,-22.11 17.99,-40.11 40.11,-40.11l401.08 0c19.57,0 35.91,14.09 39.41,32.66l-0.31 0 0 146.24c-2.01,4.86 -6.79,8.27 -12.36,8.27 -7.38,0 -13.37,-5.98 -13.37,-13.37l0 -133.69c0,-7.37 -6,-13.37 -13.37,-13.37l-401.07 0c-7.37,0 -13.37,6 -13.37,13.37l0 481.29c0,7.37 6,13.37 13.37,13.37l172.14 0c-0.79,8.15 -1.22,16.4 -1.22,24.76 0,0.66 0.02,1.32 0.03,1.98zm243.49 -252.97l0 -81.26c0,-7.39 5.98,-13.37 13.37,-13.37l12.36 0 0 64.08 0 31.09c-5.99,-0.43 -12.04,-0.66 -18.13,-0.66 -2.54,0 -5.07,0.05 -7.6,0.13zm-238.22 199.5l-149.48 0c-7.39,0 -13.37,-5.98 -13.37,-13.37l0 -46.44c0,-68.7 45.42,-84.42 78.58,-95.9 27.37,-9.47 42.91,-15.85 45.65,-36.44 -29.51,-20.16 -48.91,-54.06 -48.91,-92.41l0 -55.12c0,-61.67 50.17,-111.84 111.84,-111.84 61.67,0 111.84,50.17 111.84,111.84l0 55.12c0,38.35 -19.4,72.26 -48.91,92.41 2.05,15.4 11.26,22.85 27.23,29.59 -8.6,5.29 -16.86,11.09 -24.74,17.34 -12.26,-7.48 -22.57,-17.95 -27.14,-34.26 -11.95,4.37 -24.84,6.75 -38.28,6.75 -13.44,0 -26.33,-2.38 -38.28,-6.75 -8.6,30.7 -37.55,40.72 -61.56,49.03 -32.51,11.26 -60.59,20.97 -60.59,70.63l0 33.07 143.26 0c-2.86,8.71 -5.25,17.63 -7.15,26.74zm24.32 -424.78c-46.93,0 -85.1,38.17 -85.1,85.1l0 55.13c0,46.92 38.18,85.1 85.1,85.1 46.93,0 85.1,-38.18 85.1,-85.1l0 -55.13c0,-46.93 -38.18,-85.1 -85.1,-85.1z"/>
  <path class="fil0" d="M759.07 315.49c-22.3,-22.29 -58.44,-22.29 -80.73,0l-226.31 226.31c-1.55,1.55 -2.67,3.47 -3.26,5.58l-29.76 107.44c-1.22,4.41 0.02,9.12 3.25,12.36 3.24,3.23 7.95,4.47 12.36,3.25l107.44 -29.76c2.11,-0.58 4.03,-1.71 5.59,-3.26l226.31 -226.31c22.26,-22.31 22.26,-58.42 0,-80.73l-14.88 -14.88zm-279.4 234.56l185.22 -185.22 59.73 59.73 -185.22 185.22 -59.73 -59.73zm-11.93 23.94l47.72 47.73 -66.01 18.29 18.29 -66.02zm288.28 -180.82l-13.45 13.46 -59.74 -59.74 13.46 -13.45c12.38,-12.38 32.46,-12.38 44.84,0l14.89 14.88c12.36,12.4 12.36,32.46 0,44.85zm0 0z"/>
 </g>
</svg>
