<svg id="Layer_1" data-name="Layer 1" xmlns="http://www.w3.org/2000/svg" xmlns:xlink="http://www.w3.org/1999/xlink" viewBox="0 0 359.98 192.04"><defs><style>.cls-1{fill:none;}.cls-2{clip-path:url(#clip-path);}</style><clipPath id="clip-path" transform="translate(-3.02 -4)"><rect class="cls-1" x="3" y="4" width="361" height="193"/></clipPath></defs><g class="cls-2"><path d="M75.16,76A48,48,0,1,0,123,124,48,48,0,0,0,75.16,76Zm0,84A36,36,0,1,1,111,124a36,36,0,0,1-35.84,36Zm0,0" transform="translate(-3.02 -4)"/><path d="M332.94,65.52c0-.51.06-1,.06-1.52,0-10-5.26-19.27-14.81-26.09C309.24,31.52,297.46,28,285,28c-17.43,0-33.45,7.08-41.85,18.27a106.71,106.71,0,0,0-18.37-9.92C222.64,18.21,204.72,4,183,4s-39.65,14.21-41.79,32.35a107,107,0,0,0-18.36,9.92C114.45,35.08,98.43,28,81,28c-12.46,0-24.24,3.52-33.19,9.91C38.26,44.73,33,54,33,64c0,.51,0,1,0,1.52a72,72,0,1,0,113.6,65.6,96.29,96.29,0,0,1,72.7,0,72,72,0,1,0,113.59-65.6ZM285,40c16.43,0,30.72,7.8,34.82,18a71.9,71.9,0,0,0-60.66,1.4q-3.12-3.1-6.45-5.92C258.82,45.25,271.22,40,285,40ZM183,16c12.89,0,23.91,6.54,28.14,15.69a109.18,109.18,0,0,0-56.29,0C159.09,22.54,170.11,16,183,16ZM81,40c13.78,0,26.18,5.25,32.29,13.51q-3.33,2.82-6.45,5.92A71.93,71.93,0,0,0,46.18,58C50.28,47.8,64.57,40,81,40ZM75,184a60,60,0,1,1,60-60,60,60,0,0,1-60,60Zm102-71.84a106.59,106.59,0,0,0-30.23,6.07,72,72,0,0,0-29.33-52.35A95.18,95.18,0,0,1,177,40.19V52.76a24,24,0,0,0,0,46.48ZM171,76a12,12,0,1,1,12,12,12,12,0,0,1-12-12Zm48.23,42.23A106.59,106.59,0,0,0,189,112.16V99.24a24,24,0,0,0,0-46.48V40.19a95.23,95.23,0,0,1,59.56,25.69,72,72,0,0,0-29.33,52.35ZM291,184a60,60,0,1,1,60-60,60,60,0,0,1-60,60Zm0,0" transform="translate(-3.02 -4)"/></g><path d="M291.16,76A48,48,0,1,0,339,124a48,48,0,0,0-47.84-48Zm0,84A36,36,0,1,1,327,124a36,36,0,0,1-35.84,36Zm0,0" transform="translate(-3.02 -4)"/></svg>