<svg xmlns="http://www.w3.org/2000/svg" width="44.401" height="31.448" viewBox="0 0 44.401 31.448">
  <g id="feedback" transform="translate(0 -73.537)">
    <path id="Path_9066" data-name="Path 9066" d="M41.759,73.537H13.239a.881.881,0,0,0,0,1.761H41.759a.882.882,0,0,1,.881.881V96.993a.882.882,0,0,1-.881.881H26.337a.881.881,0,0,0-.691.335l-3.553,4.5L18.326,98.19a.881.881,0,0,0-.676-.317H2.642a.882.882,0,0,1-.881-.881V76.179a.882.882,0,0,1,.881-.881H5.994a.881.881,0,0,0,0-1.761H2.642A2.645,2.645,0,0,0,0,76.179V96.993a2.645,2.645,0,0,0,2.642,2.642H17.237l4.2,5.036a.886.886,0,0,0,1.368-.018l3.961-5.018H41.759A2.645,2.645,0,0,0,44.4,96.993V76.179a2.645,2.645,0,0,0-2.642-2.642Z" transform="translate(0 0)" fill="#d31b88"/>
    <path id="Path_9067" data-name="Path 9067" d="M54.93,161.637a.88.88,0,0,0,.159.834l1.715,2.07-.17,2.683c-.134,2.1,3.022-.13,3.7-.117s3.835,2.195,3.7.117l-.171-2.683,1.715-2.07a.893.893,0,0,0-.46-1.415l-2.6-.667-1.439-2.271a.893.893,0,0,0-1.488,0l-1.439,2.271-2.6.667A.88.88,0,0,0,54.93,161.637Zm4,.372c.651-.167,1.08-1.256,1.408-1.774.323.509.763,1.609,1.408,1.774l1.6.409-1.051,1.269a.881.881,0,0,0-.2.618l.1,1.645-1.532-.608a.881.881,0,0,0-.65,0l-1.532.608.1-1.645a.881.881,0,0,0-.2-.618l-1.051-1.269Z" transform="translate(-50.053 -76.768)" fill="#d31b88"/>
    <path id="Path_9068" data-name="Path 9068" d="M200.047,161.636a.881.881,0,0,0-.619-.581l-2.6-.667-1.439-2.271a.893.893,0,0,0-1.488,0l-1.439,2.271-2.6.667a.881.881,0,0,0-.46,1.415l1.715,2.07-.171,2.683c-.134,2.1,3.022-.13,3.7-.117s3.835,2.195,3.7.117l-.171-2.683,1.715-2.07a.881.881,0,0,0,.159-.834Zm-3.454,2.05a.881.881,0,0,0-.2.618l.1,1.645a5.848,5.848,0,0,0-1.857-.67,5.873,5.873,0,0,0-1.857.67l.1-1.645a.881.881,0,0,0-.2-.618l-1.051-1.269,1.6-.409c.651-.167,1.08-1.256,1.408-1.774.323.509.763,1.609,1.408,1.774l1.6.409Z" transform="translate(-172.528 -76.767)" fill="#d31b88"/>
    <path id="Path_9069" data-name="Path 9069" d="M334.426,161.636a.881.881,0,0,0-.619-.581l-2.6-.667-1.439-2.271a.893.893,0,0,0-1.488,0l-1.439,2.271-2.6.667a.893.893,0,0,0-.46,1.415l1.715,2.07-.171,2.683c-.134,2.1,3.02-.13,3.7-.117s3.835,2.2,3.7.117l-.17-2.683,1.715-2.07A.88.88,0,0,0,334.426,161.636Zm-3.454,2.05a.88.88,0,0,0-.2.618l.1,1.645-1.532-.608a.881.881,0,0,0-.65,0l-1.532.608.1-1.645a.881.881,0,0,0-.2-.618l-1.051-1.269,1.6-.409c.651-.167,1.08-1.256,1.408-1.774.323.509.763,1.609,1.408,1.774l1.6.409Z" transform="translate(-295.078 -76.767)" fill="#d31b88"/>
    <path id="Path_9070" data-name="Path 9070" d="M99.817,75.153a.88.88,0,1,0-.333-1.048A.886.886,0,0,0,99.817,75.153Z" transform="translate(-90.67 -0.004)" fill="#d31b88"/>
  </g>
</svg>
