<svg id="Layer_1" data-name="Layer 1" xmlns="http://www.w3.org/2000/svg" xmlns:xlink="http://www.w3.org/1999/xlink" viewBox="0 0 43.94 41.19"><defs><style>.cls-1{fill:none;}.cls-2{clip-path:url(#clip-path);}.cls-3{fill:#1e1e1c;fill-rule:evenodd;}</style><clipPath id="clip-path"><rect class="cls-1" width="43.92" height="42"/></clipPath></defs><g class="cls-2"><path class="cls-3" d="M39,0H5A5,5,0,0,0,0,5V36.22a5,5,0,0,0,5,5H39a5,5,0,0,0,5-5V5a5,5,0,0,0-5-5ZM28.41,7.39a4.81,4.81,0,1,1-4.8,4.81,4.8,4.8,0,0,1,4.8-4.81Zm9,29.2H7.21a1.36,1.36,0,0,1-1.32-2.14l8.24-16.31a1.39,1.39,0,0,1,2.54-.24L25,28.73a2,2,0,0,0,3.14.2l2-2.06a1.93,1.93,0,0,1,3.06.26l5.25,7.49c.75,1.09.3,2-1,2Zm0,0"/></g></svg>