<?xml version="1.0" encoding="UTF-8"?>
<!DOCTYPE svg PUBLIC "-//W3C//DTD SVG 1.1//EN" "http://www.w3.org/Graphics/SVG/1.1/DTD/svg11.dtd">
<!-- Creator: CorelDRAW 2019 (64-Bit) -->
<svg xmlns="http://www.w3.org/2000/svg" xml:space="preserve" width="26.5993mm" height="26.5991mm" version="1.1" style="shape-rendering:geometricPrecision; text-rendering:geometricPrecision; image-rendering:optimizeQuality; fill-rule:evenodd; clip-rule:evenodd"
viewBox="0 0 447.09 447.09"
 xmlns:xlink="http://www.w3.org/1999/xlink"
 xmlns:xodm="http://www.corel.com/coreldraw/odm/2003">
 <defs>
  <style type="text/css">
   <![CDATA[
    .fil0 {fill:black;fill-rule:nonzero}
   ]]>
  </style>
 </defs>
 <g id="Layer_x0020_1">
  <metadata id="CorelCorpID_0Corel-Layer"/>
  <g id="_2464023799984">
   <path class="fil0" d="M410.41 157.18l-122.81 0c0.39,-4.31 0.6,-8.67 0.6,-13.08 0,-79.46 -64.64,-144.1 -144.1,-144.1 -25.31,0 -50.21,6.66 -72,19.25 -4.18,2.41 -5.6,7.75 -3.19,11.93 2.42,4.18 7.76,5.61 11.93,3.19 19.14,-11.06 41.01,-16.91 63.26,-16.91 69.83,0 126.64,56.81 126.64,126.64 0,69.83 -56.81,126.64 -126.64,126.64 -29.23,0 -56.69,-9.68 -79.41,-28 -2.28,-1.84 -5.3,-2.39 -8.05,-1.54l-23.18 6.06 9.08 -19.95c1.31,-2.87 0.97,-6.21 -0.89,-8.76 -15.83,-21.74 -24.2,-47.48 -24.2,-74.44 0,-22.3 5.88,-44.23 17,-63.41 2.42,-4.18 1,-9.52 -3.18,-11.94 -4.17,-2.42 -9.51,-1 -11.93,3.18 -12.66,21.84 -19.35,46.8 -19.35,72.18 0,28.96 8.48,56.68 24.58,80.51l-14.62 32.12c-1.4,3.07 -0.9,6.66 1.27,9.24 2.17,2.58 5.63,3.68 8.89,2.82l37.14 -9.71c24.89,18.81 55.55,29.11 86.85,29.11 6.81,0 13.51,-0.49 20.07,-1.41l0 76.46c0,20.22 16.45,36.68 36.67,36.68l123.5 0 55.22 45.18c1.59,1.3 3.55,1.97 5.53,1.97 1.27,0 2.55,-0.28 3.74,-0.84 3.05,-1.45 4.99,-4.52 4.99,-7.89l0 -38.42 16.59 0c20.22,0 36.68,-16.46 36.68,-36.68l0 -169.4c0,-20.22 -16.45,-36.68 -36.68,-36.68l0 0zm19.21 206.08c0,10.59 -8.62,19.21 -19.21,19.21l-25.32 0c-4.82,0 -8.73,3.91 -8.73,8.73l0 28.72 -43.13 -35.29c-2.38,-2.17 -4.46,-2.17 -9.14,-2.17l-123.26 0c-10.59,0 -19.21,-8.62 -19.21,-19.21l0 -80.03c51.65,-13.95 91.9,-55.95 103.3,-108.59l125.48 0c10.6,0 19.21,8.62 19.21,19.21l0 169.4zm0 0z"/>
   <path class="fil0" d="M349.08 304.41c2.96,-1.4 5.01,-4.4 5.01,-7.89 0,-4.82 -3.91,-8.73 -8.73,-8.73l-3.57 0 -28.16 -64.18c-1.4,-3.18 -4.53,-5.23 -8,-5.23 -3.47,0 -6.6,2.05 -8,5.23l-28.16 64.18 -3.58 0c-4.82,0 -8.73,3.91 -8.73,8.73 0,3.49 2.05,6.5 5.01,7.89l-10.49 23.9c-1.94,4.42 0.07,9.57 4.48,11.51 4.42,1.94 9.57,-0.07 11.51,-4.49l13.2 -30.08 49.5 0 13.2 30.08c1.44,3.27 4.64,5.23 8,5.23 1.17,0 2.36,-0.24 3.5,-0.74 4.41,-1.94 6.43,-7.09 4.49,-11.51l-10.49 -23.9zm-60.54 -16.63l17.09 -38.94 17.09 38.94 -34.17 0zm0 0z"/>
   <path class="fil0" d="M48.38 57.11c2.3,0 4.55,-0.93 6.18,-2.56 1.62,-1.62 2.56,-3.88 2.56,-6.17 0,-2.3 -0.94,-4.55 -2.56,-6.18 -1.63,-1.62 -3.88,-2.56 -6.18,-2.56 -2.3,0 -4.55,0.93 -6.17,2.56 -1.62,1.63 -2.56,3.88 -2.56,6.18 0,2.3 0.93,4.55 2.56,6.17 1.62,1.63 3.88,2.56 6.17,2.56zm0 0z"/>
   <path class="fil0" d="M91.98 197.24c-4.23,2.32 -5.78,7.63 -3.46,11.86 1.59,2.9 4.58,4.54 7.66,4.54 1.42,0 2.86,-0.35 4.19,-1.08 19.47,-10.68 34.46,-27.29 43.22,-46.88 8.77,19.59 23.75,36.2 43.22,46.88 1.33,0.73 2.77,1.08 4.19,1.08 3.08,0 6.08,-1.64 7.66,-4.54 2.32,-4.23 0.77,-9.54 -3.46,-11.86 -22.8,-12.5 -38.14,-34.84 -41.95,-60.09l38.77 0c4.82,0 8.73,-3.91 8.73,-8.73 0,-4.82 -3.91,-8.73 -8.73,-8.73l-39.7 0 0 -36.39c0,-4.82 -3.91,-8.73 -8.73,-8.73 -4.82,0 -8.73,3.91 -8.73,8.73l0 36.39 -31.55 0c-4.82,0 -8.73,3.91 -8.73,8.73 0,4.82 3.91,8.73 8.73,8.73l30.61 0c-3.81,25.24 -19.15,47.59 -41.95,60.09zm0 0z"/>
  </g>
 </g>
</svg>
