<svg id="_x31_" enable-background="new 0 0 24 24" height="512" viewBox="0 0 24 24" width="512" xmlns="http://www.w3.org/2000/svg"><g><path d="m21.5 24h-19c-1.378 0-2.5-1.122-2.5-2.5v-19c0-1.378 1.122-2.5 2.5-2.5h19c1.378 0 2.5 1.122 2.5 2.5v19c0 1.378-1.122 2.5-2.5 2.5zm-19-23c-.827 0-1.5.673-1.5 1.5v19c0 .827.673 1.5 1.5 1.5h19c.827 0 1.5-.673 1.5-1.5v-19c0-.827-.673-1.5-1.5-1.5z"/></g><g><path d="m20.5 7c-.128 0-.256-.049-.354-.146l-3-3c-.195-.195-.195-.512 0-.707s.512-.195.707 0l3 3c.195.195.195.512 0 .707-.097.097-.225.146-.353.146z"/></g><g><path d="m17.5 7c-.128 0-.256-.049-.354-.146-.195-.195-.195-.512 0-.707l3-3c.195-.195.512-.195.707 0s.195.512 0 .707l-3 3c-.097.097-.225.146-.353.146z"/></g><g><path d="m7.5 17c-.276 0-.5-.224-.5-.5v-3.5c0-.551-.449-1-1-1s-1 .449-1 1v3.5c0 .276-.224.5-.5.5s-.5-.224-.5-.5v-3.5c0-1.103.897-2 2-2s2 .897 2 2v3.5c0 .276-.224.5-.5.5z"/></g><g><path d="m7.5 15h-3c-.276 0-.5-.224-.5-.5s.224-.5.5-.5h3c.276 0 .5.224.5.5s-.224.5-.5.5z"/></g><g><path d="m11.5 17h-1c-.276 0-.5-.224-.5-.5v-5c0-.276.224-.5.5-.5h1c1.378 0 2.5 1.122 2.5 2.5v1c0 1.378-1.122 2.5-2.5 2.5zm-.5-1h.5c.827 0 1.5-.673 1.5-1.5v-1c0-.827-.673-1.5-1.5-1.5h-.5z"/></g><g><path d="m18.25 17h-1.75c-.276 0-.5-.224-.5-.5s.224-.5.5-.5h1.75c.414 0 .75-.336.75-.75s-.336-.75-.75-.75h-.5c-.965 0-1.75-.785-1.75-1.75s.785-1.75 1.75-1.75h1.75c.276 0 .5.224.5.5s-.224.5-.5.5h-1.75c-.414 0-.75.336-.75.75s.336.75.75.75h.5c.965 0 1.75.785 1.75 1.75s-.785 1.75-1.75 1.75z"/></g></svg>