<?xml version="1.0" encoding="UTF-8"?>
<!DOCTYPE svg PUBLIC "-//W3C//DTD SVG 1.1//EN" "http://www.w3.org/Graphics/SVG/1.1/DTD/svg11.dtd">
<!-- Creator: CorelDRAW 2019 (64-Bit) -->
<svg xmlns="http://www.w3.org/2000/svg" xml:space="preserve" width="20.4419mm" height="20.4365mm" version="1.1" style="shape-rendering:geometricPrecision; text-rendering:geometricPrecision; image-rendering:optimizeQuality; fill-rule:evenodd; clip-rule:evenodd"
viewBox="0 0 277.81 277.74"
 xmlns:xlink="http://www.w3.org/1999/xlink"
 xmlns:xodm="http://www.corel.com/coreldraw/odm/2003">
 <defs>
  <style type="text/css">
   <![CDATA[
    .fil0 {fill:black;fill-rule:nonzero}
   ]]>
  </style>
 </defs>
 <g id="Layer_x0020_1">
  <metadata id="CorelCorpID_0Corel-Layer"/>
  <path class="fil0" d="M164.78 91.68l-51.8 0c-11.74,0 -21.29,9.55 -21.29,21.29l0 51.81c0,11.74 9.56,21.29 21.29,21.29l51.8 0c11.74,0 21.29,-9.56 21.29,-21.29l0 -51.8c0,-11.74 -9.56,-21.29 -21.29,-21.29l0 0 0 -0.01zm5.02 73.09c0,2.77 -2.25,5.02 -5.02,5.02l-51.8 0c-2.77,0 -5.02,-2.25 -5.02,-5.02l0 -51.8c0,-2.77 2.25,-5.02 5.02,-5.02l51.8 0c2.77,0 5.02,2.25 5.02,5.02l0 51.81 0 -0z"/>
  <path class="fil0" d="M274.7 109.86c-0.91,-4.27 -5.02,-7.06 -9.32,-6.33 -15.9,2.66 -30.81,-8.39 -32.49,-24.6 -0.4,-3.83 -3.42,-6.86 -7.25,-7.25 -13.05,-1.36 -23.5,-11.81 -24.86,-24.86 -0.4,-3.83 -3.42,-6.86 -7.25,-7.25 -14.64,-1.51 -25.92,-14.45 -24.97,-29.23 0.21,-4.13 -2.71,-7.76 -6.79,-8.44 -7.56,-1.25 -15.26,-1.89 -22.89,-1.89 -76.75,0 -138.87,62.12 -138.87,138.87 0,58.59 35.91,107.87 86.14,128.49 39.17,16.08 83.96,13.38 120.97,-7.49 41.99,-23.67 70.7,-68.61 70.7,-121.01 0,-8.62 -0.78,-17.06 -2.29,-25.25l-0.08 0c-0.23,-1.26 -0.48,-2.51 -0.75,-3.76l0 0zm-183.68 141.85c-43.58,-18.57 -74.74,-61.74 -74.74,-112.84 0,-73.21 63.85,-129.89 136.28,-121.83 2.15,18.27 15.37,33.23 33.13,37.63 3.96,15.7 16.39,28.13 32.09,32.09 4.77,19.25 21.93,33.16 42.28,33.44 0.92,6 1.39,12.08 1.42,18.16l0.07 -0.01 0 0.52c0,49.3 -29.01,91.23 -70.2,110.79 -31.57,14.99 -68.2,15.73 -100.32,2.05z"/>
 </g>
</svg>
