<?xml version="1.0" encoding="UTF-8"?>
<!DOCTYPE svg PUBLIC "-//W3C//DTD SVG 1.1//EN" "http://www.w3.org/Graphics/SVG/1.1/DTD/svg11.dtd">
<!-- Creator: CorelDRAW 2020 (64-Bit) -->
<svg xmlns="http://www.w3.org/2000/svg" xml:space="preserve" width="202.971mm" height="202.722mm" version="1.1" style="shape-rendering:geometricPrecision; text-rendering:geometricPrecision; image-rendering:optimizeQuality; fill-rule:evenodd; clip-rule:evenodd"
viewBox="0 0 14269.46 14251.95"
 xmlns:xlink="http://www.w3.org/1999/xlink"
 xmlns:xodm="http://www.corel.com/coreldraw/odm/2003">
 <defs>
  <style type="text/css">
   <![CDATA[
    .fil0 {fill:black;fill-rule:nonzero}
   ]]>
  </style>
 </defs>
 <g id="Layer_x0020_1">
  <metadata id="CorelCorpID_0Corel-Layer"/>
  <path class="fil0" d="M14220.24 7033.05l-1774.3 -1774.31c-11.94,-9.72 -25.72,-17.53 -40.68,-23.38 -21.01,-8.23 -44.51,-12.34 -68.74,-12.34 -24.21,0 -47.68,4.12 -68.66,12.34 -14.85,5.81 -28.56,13.58 -40.47,23.28l-45.7 45.7 -0.98 0 -98.6 98.56 0.46 0.46 -98.09 98.09c-11.05,13.24 -19.77,27.8 -26.12,43.12 -8.21,19.79 -12.32,41.29 -12.32,63.14 0,21.69 4.13,43.1 12.39,62.91 7.92,19 20.04,37.24 36.38,53.58l87.77 87.77 -0.21 0.21 993.84 987.81 -5613.15 0 0 -5607.52 1014.71 1029.82 72.17 72.17c11.89,9.67 25.7,17.5 40.76,23.45l-0.06 0.16c20.54,8.04 43.23,12.07 66.45,12.07 23.17,0 45.92,-4.1 66.61,-12.29 7.26,-2.88 14.22,-6.19 20.8,-9.94l25.46 -201.08 90.87 90.87 96.79 -97.74 0 -1.33 36.33 -36.33c16.54,-16.54 28.71,-34.88 36.53,-53.85 8.53,-20.71 12.76,-42.8 12.69,-64.84 -0.06,-21.06 -4.56,-42.86 -13.41,-64.02 -8.33,-19.88 -20.71,-38.65 -37.11,-55.05l-33.26 -33.27 -0.04 -0.58 -1733.79 -1738.04c-9.36,-9.32 -18.88,-17.27 -28.37,-23.72 -9.23,-6.27 -19.59,-11.9 -30.95,-16.74 -9.98,-4.25 -19.92,-7.45 -29.64,-9.45 -8.7,-1.79 -18.92,-2.73 -30.62,-2.73l-12.13 0c-11.66,0 -21.82,0.94 -30.5,2.72 -9.65,1.98 -19.55,5.17 -29.51,9.43 -9.92,4.24 -19.89,9.81 -29.72,16.56 -9.2,6.31 -18.76,14.42 -28.5,24.16l-87.67 87.67 -0.41 -0.41 -1643.96 1646.33c-7.8,7.79 -14.73,16.24 -20.7,25.18 -5.97,8.94 -11.04,18.47 -15.14,28.42 -3.81,9.27 -6.85,19.66 -9.04,31.04 -2.02,10.54 -3.07,22.31 -3.07,35.17 0,12.73 1.04,24.42 3.07,34.91 2.17,11.24 5.2,21.58 9.03,30.86 4.05,9.81 9.12,19.29 15.12,28.26 5.95,8.88 12.89,17.34 20.74,25.18l0.49 0c176.64,176.64 -32.5,-32.18 111.63,112.29 64.87,65 -121.95,-122.16 23.95,23.66l0.25 -0.25 96.78 96.78c12.18,9.93 26.21,17.84 41.37,23.71 22.45,8.7 47,13.06 71.76,13.07 24.9,0.01 49.47,-4.3 71.78,-12.92 14.92,-5.76 28.65,-13.46 40.46,-23.04l46.14 -46.14 1.36 0 1056.89 -1045.75 0 5633.12 -5618.87 0 1089.84 -1083.29c8.25,-8.29 15.36,-16.9 21.27,-25.68 5.81,-8.62 10.89,-18.17 15.18,-28.47 3.91,-9.41 6.88,-19.21 8.84,-29.29 1.97,-10.14 2.99,-21.41 2.99,-33.7 0,-12.39 -1.03,-23.8 -3.03,-34.09 -1.99,-10.24 -5,-20.2 -8.94,-29.7 -4.36,-10.5 -9.45,-20.11 -15.19,-28.66 -5.88,-8.75 -12.83,-17.15 -20.78,-25.06l-223.15 -222.66c-14.17,-14.15 -31.48,-25.01 -50.52,-32.5 -21.98,-8.65 -45.49,-12.98 -68.82,-12.97 -23.24,0.01 -46.73,4.36 -68.73,13.02 -14.88,5.86 -28.68,13.73 -40.75,23.59l-1776.41 1776.41c-9.16,9.16 -16.51,17.92 -22,26.15 -5.56,8.33 -10.53,17.88 -14.83,28.45 -4.47,11 -7.69,21.63 -9.59,31.71 -2.1,11.1 -3.07,21.87 -2.89,32.12l0.49 1.94 0 3.88 -0.49 1.94c-0.22,12.3 0.74,24.27 2.81,35.75 1.91,10.62 5.08,21.44 9.43,32.31 4,10 9.1,19.69 15.2,28.92 6.19,9.35 13.14,17.92 20.77,25.54l1730.82 1731.22c14.04,14.02 31.36,24.82 50.51,32.33 21.18,8.3 44.84,12.46 69.21,12.46 24.39,0 47.98,-4.11 69.01,-12.34 14.74,-5.76 28.28,-13.39 39.9,-22.81l244.37 -244.4c3.68,-4.41 7.08,-8.94 10.19,-13.59 6,-8.95 11.04,-18.34 15.03,-28.01 3.8,-9.18 6.8,-19.43 8.95,-30.58 2,-10.4 3.04,-22.01 3.04,-34.71 0,-12.91 -1.04,-24.7 -3.06,-35.22 -2.19,-11.43 -5.22,-21.83 -8.99,-31.02 -3.96,-9.62 -9,-19.03 -15.04,-28.04 -5.31,-7.91 -12.52,-16.46 -21.58,-25.52l-36.33 -36.33 0 -1.02 -1049.83 -1051.32 5651.85 0 0 5643.4 -1085.91 -1074.4 -1.36 0 -45.62 -45.62c-11.93,-9.72 -25.64,-17.46 -40.45,-23.2 -21.18,-8.2 -45.3,-12.32 -70.49,-12.32 -25.2,0 -49.32,4.11 -70.5,12.32 -14.8,5.74 -28.51,13.48 -40.44,23.19l-45.63 45.63 -1.26 0 -188.44 186.94c-7.88,7.87 -14.89,16.39 -20.91,25.38 -5.79,8.65 -10.97,18.42 -15.42,29.14 -3.93,9.46 -7,19.67 -9.13,30.48 -2.04,10.38 -3.09,21.6 -3.09,33.48 0,12.85 1.02,24.53 3,34.89 2.16,11.3 5.13,21.55 8.84,30.57 4.01,9.75 9.01,19.14 14.94,28.01 3.26,4.88 6.85,9.67 10.77,14.33l1774.48 1774.72c4.6,3.82 9.43,7.42 14.49,10.76 8.6,5.69 18.12,10.69 28.43,14.88 10.71,4.35 21.41,7.56 31.96,9.56 10.71,2.02 23.05,3.07 36.92,3.07l8.15 0c12.86,0 24.52,-1.02 34.88,-3 11.28,-2.16 21.52,-5.13 30.55,-8.84 9.77,-4.02 19.17,-9.03 28.04,-14.95 4.92,-3.28 9.74,-6.9 14.43,-10.83l1786.68 -1786.81c3.93,-4.68 7.54,-9.48 10.81,-14.36 6.03,-9.01 11.08,-18.41 15.07,-28.09 3.8,-9.19 6.81,-19.44 8.96,-30.57 2,-10.38 3.04,-21.97 3.04,-34.62 0,-12.76 -1.03,-24.4 -3.03,-34.79 -2.15,-11.18 -5.15,-21.43 -8.94,-30.59 -3.5,-8.49 -8.52,-17.58 -14.99,-27.17 -5.91,-8.75 -13.18,-17.48 -21.74,-26.05l-223.39 -223.4c-14.66,-14.66 -31.52,-25.58 -49.4,-32.78 -19.67,-7.92 -41.54,-11.89 -64.07,-11.89 -22.96,0 -44.98,3.91 -64.52,11.71 -14.05,5.61 -27.35,13.36 -39.36,23.26l-71.51 71.51 -1008.07 1023.41 0 -5606.46 5657.8 0 -518.33 519.22c-318.27,318.91 -551.01,552.3 -596.97,598.26l-0.49 0c-7.85,7.82 -14.76,16.25 -20.69,25.11 -5.98,8.93 -11.02,18.41 -15.08,28.25 -3.8,9.22 -6.82,19.57 -8.99,30.89 -2.02,10.5 -3.06,22.24 -3.06,35.08 0,12.8 1.03,24.48 3.04,34.91 2.16,11.22 5.17,21.5 8.95,30.67 3.98,9.65 9.03,19.05 15.05,28.02 5.88,8.75 12.82,17.18 20.78,25.11l136.1 136.16 0.46 -0.46 97.14 97.14c11.85,9.64 25.58,17.39 40.47,23.2 20.91,8.17 44.33,12.25 68.54,12.25 24.21,0 47.64,-4.09 68.55,-12.25 14.9,-5.81 28.62,-13.56 40.47,-23.2l1774.29 -1774.29c3.73,-4.51 7.26,-9.27 10.57,-14.26 5.89,-8.89 11.02,-18.71 15.3,-29.25 4.46,-10.99 7.68,-21.65 9.59,-31.76 2.1,-11.12 3.07,-21.92 2.89,-32.2l-0.49 -1.94 0 -3.88 0.49 -1.94c0.22,-12.35 -0.71,-24.29 -2.75,-35.66 -1.91,-10.59 -5.06,-21.38 -9.4,-32.2 -3.99,-9.97 -9.1,-19.66 -15.23,-28.93 -3.4,-5.14 -7.04,-10.05 -10.89,-14.69l-10.93 -10.93z"/>
 </g>
</svg>
