<?xml version="1.0" encoding="UTF-8"?>
<!DOCTYPE svg PUBLIC "-//W3C//DTD SVG 1.1//EN" "http://www.w3.org/Graphics/SVG/1.1/DTD/svg11.dtd">
<!-- Creator: CorelDRAW 2020 (64-Bit) -->
<svg xmlns="http://www.w3.org/2000/svg" xml:space="preserve" width="53.8701mm" height="53.8688mm" version="1.1" style="shape-rendering:geometricPrecision; text-rendering:geometricPrecision; image-rendering:optimizeQuality; fill-rule:evenodd; clip-rule:evenodd"
viewBox="0 0 1019.49 1019.47"
 xmlns:xlink="http://www.w3.org/1999/xlink"
 xmlns:xodm="http://www.corel.com/coreldraw/odm/2003">
 <defs>
  <style type="text/css">
   <![CDATA[
    .fil0 {fill:black;fill-rule:nonzero}
    .fil1 {fill:black;fill-rule:nonzero}
   ]]>
  </style>
 </defs>
 <g id="Layer_x0020_1">
  <metadata id="CorelCorpID_0Corel-Layer"/>
  <g id="_2171741277264">
   <g>
    <g>
     <path id="Shape" class="fil0" d="M741.11 442.24c30.03,-161.02 -48.29,-322.83 -193.22,-399.16 -144.92,-76.34 -322.66,-49.41 -438.46,66.43 -115.8,115.84 -142.68,293.59 -66.31,438.48 76.38,144.9 238.21,223.17 399.22,193.1 5.59,156.64 135.15,280.2 291.88,278.35 156.73,-1.85 283.35,-128.43 285.24,-285.16 1.89,-156.73 -121.63,-286.33 -278.27,-291.96l-0.09 -0.08zm-298.1 263.89c-147.37,30.93 -297.54,-38.66 -369.22,-171.08 -71.68,-132.42 -47.82,-296.2 58.65,-402.68 106.47,-106.48 270.26,-130.33 402.68,-58.65 132.42,71.68 202.01,221.85 171.08,369.22 -37.53,3.02 -74.08,13.43 -107.55,30.62 -44.2,24.53 -104.4,67.22 -138.63,156.22 -9.14,24.55 -14.86,50.24 -17.01,76.36zm-199.48 -273.15c1.24,-0.49 2.5,-0.95 3.76,-1.4 -0.94,-0.52 -1.8,-1.03 -2.53,-1.5 -0.32,0.94 -0.76,1.92 -1.23,2.9zm28.57 12.76l0 1.46 0 -1.46zm638.52 464.73c-85.9,85.94 -220.56,99.23 -321.61,31.74 -101.05,-67.49 -140.35,-196.96 -93.87,-309.24 46.48,-112.27 165.8,-176.07 284.99,-152.38 119.18,23.69 205.04,128.27 205.05,249.79 0.18,67.59 -26.68,132.44 -74.61,180.09l0.05 0z"/>
    </g>
    <path id="Shape_0" class="fil0" d="M884.53 600.34l-284.08 284.08c-3.33,3.63 -4.99,8.49 -4.58,13.4 0.41,4.91 2.85,9.42 6.74,12.45 87.79,62.29 207.71,52.16 283.82,-23.96 76.11,-76.12 86.22,-196.04 23.92,-283.83 -3.04,-3.86 -7.55,-6.29 -12.45,-6.7 -4.9,-0.41 -9.75,1.24 -13.38,4.56zm-21.97 262.11c-58.93,59.31 -150.21,71.97 -223.05,30.94l253.99 -253.99c41.01,72.85 28.36,164.12 -30.94,223.05z"/>
    <path id="Shape_1" class="fil0" d="M858.36 550.49c-87.79,-62.28 -207.71,-52.16 -283.82,23.96 -76.11,76.12 -86.22,196.04 -23.92,283.83 2.9,4.06 7.44,6.64 12.42,7.06 4.98,0.41 9.88,-1.39 13.41,-4.92l284.08 -284.08c3.35,-3.62 5.02,-8.48 4.61,-13.4 -0.41,-4.91 -2.87,-9.43 -6.77,-12.45zm-290.89 270.87c-40.75,-72.9 -28.11,-163.99 30.94,-223.05 59.05,-59.05 150.15,-71.69 223.05,-30.94l-253.99 253.99z"/>
   </g>
   <path class="fil1" d="M265.41 476.73c0,8.23 0.2,14.92 1.67,19.71 1.2,3.89 3.62,7.5 8.27,11.33 0.84,0.69 1.93,1.45 3.15,2.17 0.88,0.52 1.92,1.04 3.04,1.48l0 0.07c1.81,0.72 3.88,1.41 6.23,1.95 1.87,0.43 3.94,0.71 6.21,0.71l142.39 0c2.22,0 4.25,-0.22 6.01,-0.58 1.99,-0.4 3.85,-1 5.39,-1.68 2.19,-0.96 4.11,-1.87 5.41,-2.66 1.16,-0.7 2.26,-1.52 3.27,-2.52 8.57,-8.49 8.56,-17.46 8.55,-30.31l-0 -1.89 -0.07 0c0,-4.64 -0.33,-9.06 -0.85,-13.11 -0.69,-5.43 -1.75,-10.88 -2.86,-15.74 -2.04,-8.95 -5.31,-17.98 -10.25,-25.35 -3.59,-5.35 -8.08,-9.8 -13.64,-12.52 -2.08,-1.02 -4.59,-1.84 -7.42,-2.45 -2.84,-0.62 -5.9,-0.93 -9.05,-0.93 -2.03,0 -0.36,1.53 -3.4,3.49 -18.52,11.88 -47.72,30.61 -92.06,7.72 -3.49,-1.81 -6.67,-4 -9.95,-6.25 -3.47,-2.4 -7.17,-4.95 -7.61,-4.95 -9.63,0 -17.33,3.75 -23.17,9.58 -7.98,7.97 -13.11,19.81 -15.49,32.1l-0.62 3.25c-0.77,3.91 -1.53,7.75 -2,11.51 -0.36,2.9 -0.66,5.6 -0.84,8.05 -0.18,2.35 -0.28,4.91 -0.28,7.84zm-33.67 30.58c-3.01,-9.79 -3.41,-19.35 -3.41,-30.58 0,-3.4 0.16,-6.9 0.43,-10.52l0 -0.07c0.26,-3.54 0.6,-6.73 0.98,-9.78 0.61,-4.87 1.51,-9.45 2.44,-14.12l0.62 -3.17c3.68,-18.9 12.16,-37.7 25.77,-51.29 12.46,-12.45 28.82,-20.44 49.24,-20.44 11.78,0 20.46,5.99 28.62,11.61 2.19,1.51 4.33,2.99 5.89,3.79 25.38,13.11 43.59,1.43 55.13,-5.98 8.24,-5.28 14.69,-9.43 23.39,-9.43 5.67,0 11.37,0.61 16.87,1.8 5.39,1.17 10.73,3.01 15.82,5.49 11.96,5.85 21.15,14.72 28.13,25.12 7.73,11.52 12.67,24.89 15.61,37.81 1.28,5.64 2.54,12.21 3.43,19.22 0.79,6.15 1.29,12.23 1.29,17.75l-0.07 0 0 1.89c0.02,21.95 0.04,37.27 -19.41,56.52 -3.16,3.13 -6.6,5.68 -10.22,7.88 -3.49,2.12 -6.61,3.65 -9.61,4.98 -3.6,1.58 -8.05,3 -12.92,4 -4.42,0.9 -9.01,1.45 -13.4,1.45l-142.39 0c-5.03,0 -9.89,-0.67 -14.46,-1.72 -4.09,-0.94 -7.99,-2.26 -11.56,-3.68l-0.02 0.06c-2.62,-1.04 -5.52,-2.52 -8.4,-4.23 -2.69,-1.6 -5.33,-3.46 -7.64,-5.36 -10.9,-8.99 -16.86,-18.31 -20.14,-28.99z"/>
   <path class="fil1" d="M313.61 261.94l0 1.42 -0.07 0c-0,6.14 -0.01,9.22 1.52,15.12l0 0.07c0.19,0.75 0.64,2.06 1.22,3.78l0.1 0.29 3.28 7.28c6.22,10.89 16.01,18.8 27.37,22.71 11.42,3.92 24.47,3.77 37.12,-1.51 1.39,-0.58 3.46,-1.73 5.55,-3.05l-0.02 -0.03c2.17,-1.38 3.93,-2.58 4.57,-3.18 3.4,-3.18 6.41,-6.07 8.93,-9.1 2.09,-2.51 3.96,-5.35 5.66,-9.04 5.06,-10.95 5.9,-22.61 3.14,-33.31 -2.84,-11.01 -9.48,-21.11 -19.23,-28.52 -2.13,-1.62 -4.68,-3.15 -7.48,-4.5 -2.78,-1.34 -5.65,-2.42 -8.47,-3.16 -1.58,-0.41 -3.34,-0.77 -5.26,-1.05 -1.78,-0.26 -3.45,-0.44 -4.97,-0.54l0 0.03 -6.57 0 0 -0.04c-3.23,0.18 -6.43,0.64 -9.47,1.37 -2.85,0.69 -5.64,1.68 -8.24,2.98 -8.35,4.17 -15.83,10.75 -21.11,18.67 -4.7,7.06 -7.57,15.12 -7.57,23.3zm-37 1.42l-0.07 0 0 -1.42c0,-15.77 5.23,-30.85 13.8,-43.72 8.89,-13.36 21.46,-24.44 35.44,-31.42 4.89,-2.44 10.32,-4.35 16.07,-5.73 5.64,-1.36 11.54,-2.17 17.44,-2.42l0.72 -0.07 6.57 0 0.8 0.07c3.42,0.15 6.62,0.44 9.53,0.87 3.06,0.45 6.18,1.09 9.31,1.92 5.11,1.35 10.25,3.25 15.13,5.62 4.73,2.29 9.39,5.13 13.71,8.41 16.52,12.55 27.8,29.83 32.69,48.79 4.83,18.74 3.43,39.02 -5.31,57.93 -3.12,6.74 -6.73,12.17 -10.87,17.15 -3.71,4.46 -7.69,8.29 -12.12,12.43 -2.78,2.6 -6.43,5.31 -9.93,7.52l-0.07 0c-3.81,2.41 -7.94,4.66 -11.11,5.98 -21.41,8.93 -43.69,9.12 -63.33,2.38 -20.18,-6.94 -37.54,-21.24 -48.29,-40.98l-0.65 -1.23 -4.14 -9.19 -0.7 -2.06c-0.61,-1.79 -1.07,-3.16 -1.93,-6.46l-0.02 0.01c-2.69,-10.4 -2.68,-15.07 -2.68,-24.39z"/>
  </g>
 </g>
</svg>
