<?xml version="1.0" encoding="UTF-8"?>
<!DOCTYPE svg PUBLIC "-//W3C//DTD SVG 1.1//EN" "http://www.w3.org/Graphics/SVG/1.1/DTD/svg11.dtd">
<!-- Creator: CorelDRAW 2019 (64-Bit) -->
<svg xmlns="http://www.w3.org/2000/svg" xml:space="preserve" width="24.8732mm" height="30.5161mm" version="1.1" style="shape-rendering:geometricPrecision; text-rendering:geometricPrecision; image-rendering:optimizeQuality; fill-rule:evenodd; clip-rule:evenodd"
viewBox="0 0 882.74 1083.01"
 xmlns:xlink="http://www.w3.org/1999/xlink"
 xmlns:xodm="http://www.corel.com/coreldraw/odm/2003">
 <defs>
  <style type="text/css">
   <![CDATA[
    .fil0 {fill:black;fill-rule:nonzero}
   ]]>
  </style>
 </defs>
 <g id="Layer_x0020_1">
  <metadata id="CorelCorpID_0Corel-Layer"/>
  <g id="_2597556046384">
   <g>
    <path class="fil0" d="M128.73 1009.45l-110.34 0c-10.15,0 -18.39,-8.24 -18.39,-18.39l0 -331.02c0,-10.15 8.24,-18.39 18.39,-18.39 125.09,0 191.18,42.15 193.94,43.95 6.58,4.3 9.71,12.28 7.76,19.93l-73.56 290.05c-2.02,8.17 -9.38,13.87 -17.8,13.87l-0 0zm-91.95 -36.78l77.64 0 66.5 -262.24c-20.67,-9.93 -69.44,-28.91 -144.14,-31.67l0 293.91z"/>
   </g>
   <g>
    <path class="fil0" d="M478.14 1083.01c-86.66,0 -254.59,-73.01 -346.94,-116.52 -9.2,-4.34 -13.13,-15.3 -8.79,-24.46 4.3,-9.2 15.34,-13.17 24.46,-8.79 152.45,71.79 273.2,112.99 331.28,112.99 89.49,0 300.31,-105.08 360.96,-136.34 -9.56,-12.47 -29.31,-29.17 -66.72,-29.17 -33.95,0 -76.98,13.61 -118.62,26.74 -44.25,13.98 -90.04,28.43 -129.65,28.43 -75.92,0 -176.77,-36.34 -180.99,-37.89 -9.56,-3.46 -14.49,-14.01 -11,-23.58 3.46,-9.53 13.98,-14.42 23.58,-10.99 0.96,0.37 99.01,35.67 168.42,35.67 33.95,0 76.98,-13.61 118.61,-26.74 44.25,-13.98 90.04,-28.43 129.65,-28.43 85.84,0 108.46,64.99 109.42,67.75 2.83,8.5 -0.88,17.84 -8.79,22.07 -11.44,6.07 -281.22,149.25 -394.87,149.25l0 0z"/>
   </g>
   <g>
    <path class="fil0" d="M606.87 920.81c-10.15,0 -18.39,-8.24 -18.39,-18.39l0 -18.39c0,-25.67 -17.32,-47.67 -42.08,-53.44l-355.04 -85.73c-9.89,-2.35 -15.96,-12.32 -13.57,-22.18 2.39,-9.86 12.25,-16.04 22.22,-13.57l354.89 85.7c41.38,9.64 70.36,46.34 70.36,89.22l0 18.39c0,10.15 -8.24,18.39 -18.39,18.39z"/>
   </g>
  </g>
  <g id="_2597556049008">
   <path class="fil0" d="M806.29 604.58l0 -425.12c0,-2.7 -0.53,-5.33 -1.51,-7.72 -0.99,-2.38 -2.45,-4.59 -4.33,-6.46l-159.44 -159.42c-1.87,-1.91 -4.08,-3.37 -6.46,-4.36 -2.38,-0.99 -5.01,-1.51 -7.72,-1.51l-265.7 0c-5.54,0 -10.55,2.25 -14.18,5.87 -3.63,3.61 -5.87,8.63 -5.87,14.18l0 584.53c0,5.56 2.23,10.58 5.84,14.18 3.65,3.62 8.66,5.87 14.2,5.87l425.12 0c5.54,0 10.55,-2.25 14.17,-5.87 3.63,-3.61 5.87,-8.63 5.87,-14.18zm-148.28 -525.01l79.84 79.84 -90.98 0 0 -90.98 11.14 11.14zm-276.84 498.44l0 -537.92 225.61 0 0 139.37c0,5.54 2.24,10.57 5.86,14.19 3.63,3.61 8.65,5.85 14.19,5.85l139.38 0 0 385.03 -385.03 0 0 -6.52z"/>
   <polygon class="fil0" points="700.01,265.7 447.36,265.7 447.36,305.79 700.01,305.79 "/>
   <polygon class="fil0" points="700.01,371.98 447.36,371.98 447.36,412.1 700.01,412.1 "/>
   <polygon class="fil0" points="700.01,478.26 447.36,478.26 447.36,518.35 700.01,518.35 "/>
   <polygon class="fil0" points="540.59,159.42 447.36,159.42 447.36,199.51 540.59,199.51 "/>
  </g>
 </g>
</svg>
