<?xml version="1.0" encoding="UTF-8"?>
<!DOCTYPE svg PUBLIC "-//W3C//DTD SVG 1.1//EN" "http://www.w3.org/Graphics/SVG/1.1/DTD/svg11.dtd">
<!-- Creator: CorelDRAW 2019 (64-Bit) -->
<svg xmlns="http://www.w3.org/2000/svg" xml:space="preserve" width="19.9918mm" height="23.7781mm" version="1.1" style="shape-rendering:geometricPrecision; text-rendering:geometricPrecision; image-rendering:optimizeQuality; fill-rule:evenodd; clip-rule:evenodd"
viewBox="0 0 266.8 317.33"
 xmlns:xlink="http://www.w3.org/1999/xlink"
 xmlns:xodm="http://www.corel.com/coreldraw/odm/2003">
 <defs>
  <style type="text/css">
   <![CDATA[
    .fil0 {fill:black}
   ]]>
  </style>
 </defs>
 <g id="Layer_x0020_1">
  <metadata id="CorelCorpID_0Corel-Layer"/>
  <path class="fil0" d="M194.08 72.81l-20.21 20.21c-1.38,1.38 -2.07,3.2 -2.07,5.01 0,1.81 0.69,3.63 2.07,5.01 1.37,1.38 3.19,2.07 5.01,2.07 1.81,0 3.63,-0.69 5.01,-2.07l8.12 -8.13 0 13.22c0,11.98 -4.87,22.84 -12.74,30.71 -7.87,7.87 -18.73,12.74 -30.71,12.74 -11.98,0 -22.84,-4.87 -30.71,-12.74 -7.87,-7.87 -12.74,-18.73 -12.74,-30.71 0,-11.98 4.87,-22.84 12.74,-30.71 7.87,-7.87 18.73,-12.74 30.71,-12.74 1.96,0 3.73,-0.79 5.01,-2.06 1.28,-1.28 2.07,-3.06 2.07,-5.02 0,-1.96 -0.79,-3.73 -2.07,-5.01 -1.28,-1.28 -3.05,-2.07 -5.01,-2.07 -15.88,0 -30.29,6.46 -40.72,16.89 -10.43,10.43 -16.89,24.83 -16.89,40.72 0,15.88 6.46,30.29 16.89,40.72 10.43,10.43 24.83,16.89 40.72,16.89 15.88,0 30.28,-6.46 40.72,-16.89 10.43,-10.43 16.89,-24.83 16.89,-40.71l0 -13.21 8.12 8.12c1.39,1.38 3.2,2.07 5.01,2.07 1.81,0 3.63,-0.69 5.01,-2.07 1.38,-1.38 2.07,-3.2 2.07,-5.01 0,-1.81 -0.69,-3.63 -2.07,-5.01l-20.21 -20.21c-1.38,-1.38 -3.19,-2.08 -5,-2.08 -1.81,-0 -3.63,0.69 -5.02,2.08z"/>
  <path class="fil0" d="M266.8 129.5c0,-42.7 -13.47,-71.43 -31.52,-90.69 -32.02,-34.18 -78.44,-38.81 -89.66,-38.81 -30.8,0 -56.61,12.32 -75.49,30.02 -22.13,20.75 -34.75,48.87 -34.75,73.22l0 17.62 -29.75 38.24c-1.81,2.33 -3.22,4.95 -4.17,7.73 -0.95,2.77 -1.45,5.71 -1.45,8.66 0,5.56 1.67,10.79 4.62,15.15 2.94,4.36 7.19,7.85 12.35,9.92l9.79 3.92 14.61 40.9c3.37,9.43 9.54,17.31 17.38,22.83 7.84,5.52 17.34,8.69 27.36,8.69l16.51 0 8.77 35.06c0.4,1.58 1.3,2.93 2.51,3.87 1.21,0.94 2.73,1.49 4.36,1.49l121.26 0c1.11,0 2.19,-0.26 3.16,-0.74 0.97,-0.48 1.83,-1.19 2.5,-2.07 0.67,-0.89 1.12,-1.91 1.31,-2.96 0.2,-1.06 0.15,-2.18 -0.16,-3.25l-19.5 -68.25 31.64 -71.19c2.76,-6.22 4.85,-12.65 6.25,-19.24 1.39,-6.56 2.09,-13.28 2.09,-20.12zm-21.3 33.59l-32.68 73.53c-0.33,0.75 -0.53,1.56 -0.59,2.38 -0.06,0.82 0.03,1.65 0.26,2.45l17.63 61.71 -106.34 0 -8.77 -35.06c-0.39,-1.58 -1.3,-2.92 -2.51,-3.87 -1.21,-0.94 -2.73,-1.49 -4.36,-1.49l-22.04 0c-7.02,0 -13.69,-2.22 -19.19,-6.1 -5.5,-3.88 -9.84,-9.41 -12.21,-16.03l-15.68 -43.91c-0.34,-0.96 -0.88,-1.83 -1.57,-2.54 -0.69,-0.72 -1.53,-1.29 -2.46,-1.66l-12.75 -5.1c-1.16,-0.46 -2.21,-1.08 -3.15,-1.8 -2.25,-1.75 -3.78,-4.15 -4.48,-6.76 -0.7,-2.6 -0.58,-5.42 0.46,-8.01 0.42,-1.05 1,-2.08 1.74,-3.03l29.91 -38.48c0.9,-1.15 1.6,-2.47 2.08,-3.86 0.47,-1.38 0.72,-2.85 0.72,-4.32l0 -17.9c0,-15.49 9.7,-44.03 31.92,-64.59 15.24,-14.1 36.33,-24.5 64.18,-24.5 9.69,0 50.8,3.78 79.15,34.39 15.95,17.22 27.85,42.86 27.85,80.95 0,5.81 -0.6,11.55 -1.79,17.17 -1.18,5.59 -2.97,11.08 -5.34,16.41z"/>
 </g>
</svg>
