<?xml version="1.0" encoding="UTF-8"?>
<!DOCTYPE svg PUBLIC "-//W3C//DTD SVG 1.1//EN" "http://www.w3.org/Graphics/SVG/1.1/DTD/svg11.dtd">
<!-- Creator: CorelDRAW 2020 (64-Bit) -->
<svg xmlns="http://www.w3.org/2000/svg" xml:space="preserve" width="21.5029mm" height="22.8599mm" version="1.1" style="shape-rendering:geometricPrecision; text-rendering:geometricPrecision; image-rendering:optimizeQuality; fill-rule:evenodd; clip-rule:evenodd"
viewBox="0 0 1638.94 1742.37"
 xmlns:xlink="http://www.w3.org/1999/xlink"
 xmlns:xodm="http://www.corel.com/coreldraw/odm/2003">
 <defs>
  <style type="text/css">
   <![CDATA[
    .fil0 {fill:black;fill-rule:nonzero}
   ]]>
  </style>
 </defs>
 <g id="Layer_x0020_1">
  <metadata id="CorelCorpID_0Corel-Layer"/>
  <g id="_1193281399520">
   <g>
    <path class="fil0" d="M1517.74 583.68c-26.11,0 -50.29,8.31 -70.1,22.38l0 -358.72c0.55,-99.7 -115.53,-158.14 -195.24,-99.54l0 -24.94c0,-67.74 -55.24,-122.86 -123.14,-122.86 -67.9,0 -123.14,55.11 -123.14,122.86l0 24.94c-79.74,-58.59 -195.78,-0.16 -195.24,99.54l0 149.42c-79.73,-58.6 -195.79,-0.14 -195.24,99.55l0.05 386.42c-131.91,-55.73 -295.64,-40.37 -415.21,40.91 -27.5,18.24 0.72,60.78 28.22,42.54 257.86,-174.43 616.08,18.31 613.35,329.74 -21.71,524.54 -769.15,524.44 -790.81,0 0,-89.61 29.36,-174.17 84.92,-244.54 20.45,-25.91 -19.62,-57.53 -40.07,-31.63 -230.82,288.73 -18.95,724.33 350.57,722.62 128.76,0.01 244.94,-54.81 326.49,-142.31 186.98,187 514.27,188.64 703.89,4.18 24.09,-22.55 -10.81,-59.82 -34.89,-37.26 -171.68,166.99 -468.29,164.38 -636.3,-6.27 160.58,-210.4 88.95,-528.52 -139.12,-653.11l-0.04 -411.3c4.02,-95.36 140.27,-95.15 144.19,0l0 366c0,33 51.04,33 51.04,0 0,-148.6 -0.01,-468.96 0,-614.97 0,-39.6 32.34,-71.81 72.1,-71.81 39.76,0 72.1,32.21 72.1,71.81l0 503.95c0,33 51.04,33 51.04,0l0 -503.95 0 -124.48c3.86,-95.08 140.18,-95.42 144.19,0 -0.05,79.15 0.04,538.93 0,628.43 0,33 51.04,33 51.04,0l0 -503.95c0,-39.6 32.35,-71.81 72.1,-71.81 39.75,0 72.1,32.21 72.1,71.81 -0.57,192.71 0.41,600.3 0,790.43 -123.9,12.8 -220.85,117.73 -220.85,244.86 0,14.09 11.43,25.53 25.53,25.53 14.1,0 25.53,-11.43 25.53,-25.53 0,-107.59 87.61,-195.12 195.31,-195.12 14.1,0 25.53,-11.43 25.53,-25.52l0 -357.44c0,-38.5 31.45,-69.82 70.1,-69.82 38.66,0 70.1,31.32 70.1,69.82l0 519.57c0.29,87.2 -22.18,173.38 -68.03,247.85 -16.65,27.04 25.18,56.45 43.47,26.77 50.37,-81.81 76.9,-178.33 75.61,-274.4l0 -519.79c-0.01,-66.65 -54.35,-120.86 -121.14,-120.86l-0.01 0z"/>
    <path class="fil0" d="M231.78 1557.63c0.57,7.43 4.37,14.24 10.39,18.64 324.38,226.23 710.99,-160.71 484.83,-484.83 -11.97,-12.86 -24.86,-13.85 -38.66,-2.99l-449.17 449.17c-5.27,5.27 -7.97,12.58 -7.4,20.02l0.01 0zm470.5 -410.94c150.16,264.03 -141.01,554.97 -404.86,404.86l404.86 -404.86z"/>
    <path class="fil0" d="M651.12 1015.56c-324.39,-226.22 -710.99,160.71 -484.83,484.84 9.34,12.77 27.71,13.93 38.66,2.99l449.17 -449.17c10.86,-13.8 9.86,-26.69 -3,-38.66zm-460.11 429.58c-150.16,-264.03 141.01,-554.98 404.86,-404.86l-404.86 404.86z"/>
   </g>
  </g>
 </g>
</svg>
