<?xml version="1.0" encoding="UTF-8"?>
<!DOCTYPE svg PUBLIC "-//W3C//DTD SVG 1.1//EN" "http://www.w3.org/Graphics/SVG/1.1/DTD/svg11.dtd">
<!-- Creator: CorelDRAW 2020 (64-Bit) -->
<svg xmlns="http://www.w3.org/2000/svg" xml:space="preserve" width="108.683mm" height="95.9365mm" version="1.1" style="shape-rendering:geometricPrecision; text-rendering:geometricPrecision; image-rendering:optimizeQuality; fill-rule:evenodd; clip-rule:evenodd"
viewBox="0 0 31668.85 27954.63"
 xmlns:xlink="http://www.w3.org/1999/xlink"
 xmlns:xodm="http://www.corel.com/coreldraw/odm/2003">
 <defs>
  <style type="text/css">
   <![CDATA[
    .fil0 {fill:black;fill-rule:nonzero}
    .fil1 {fill:black;fill-rule:nonzero}
   ]]>
  </style>
 </defs>
 <g id="Layer_x0020_1">
  <metadata id="CorelCorpID_0Corel-Layer"/>
  <path class="fil0" d="M27598.24 17324.23l-5321.77 3774.1 -56.76 -419.83c-36.92,-273 -123.14,-531.02 -249.31,-764.6 -129.64,-240.04 -301.38,-454.07 -505.15,-631.93 -201.96,-176.32 -435.68,-317.38 -691.17,-413.19 -245.81,-92.17 -512.67,-142.63 -791.84,-142.63l-644.9 0c-657.31,0 -1309.58,-41.09 -1965.26,-118.16 -654.4,-76.9 -1311.62,-189.66 -1980.21,-333.2 -666.72,-143.13 -1343.23,-316.48 -2038.37,-514.91 -693.85,-198.08 -1409,-422.04 -2153.47,-666.61 -129.64,-42.6 -259.25,-79.61 -388.45,-110.93 -130.57,-31.67 -262.07,-58.1 -394.07,-79.11 -129.96,-20.69 -263.18,-36.42 -399.2,-47.03 -133.54,-10.43 -269.42,-15.71 -407.21,-15.71 -376.24,0 -745.05,40.07 -1101.41,117.75 -360.62,78.62 -708.77,195.72 -1039.38,348.73 -331.37,153.36 -645.74,342.99 -937.97,566.28 -289.81,221.45 -558.03,476.16 -799.65,761.54l-77.36 91.35 -5283.78 0c-51.14,0 -99.33,9.91 -142.69,27.8 -38.4,15.85 -73.72,38.11 -104.52,65.42l-15.56 15.56c-34.62,34.62 -62.36,75.5 -80.89,120.28 -17.95,43.39 -27.89,91.52 -27.89,142.49l0 5656.93c0,51.14 9.91,99.33 27.8,142.69 18.68,45.25 46.27,86.22 80.51,120.55 34.33,34.24 75.29,61.83 120.55,80.51 43.36,17.89 91.55,27.8 142.69,27.8 2337.71,0 4635.99,652.76 7069.01,1343.79l1.52 0.41c1286.74,365.49 2595.47,737.24 3937.83,1016.91 1339.85,279.18 2716.66,467.36 4145.3,467.36 1334.7,0 2495.29,-92.05 3598.07,-321.28 1102.43,-229.15 2149.82,-595.71 3258.87,-1144.74 1118.58,-553.75 2301.96,-1293.23 3667.63,-2263.78 1351.34,-960.35 2877.07,-2143.5 4691.27,-3593.91l-16.08 -20.11 106.21 -52.04c234.01,-189.26 420.59,-416.33 557.8,-665.67 144.18,-261.87 233.52,-548.04 265.98,-840.48 32.46,-292.9 8.19,-591.78 -74.89,-878.53 -71.13,-245.55 -185.23,-482.54 -343.46,-699.62l-18.3 14.63 -52.04 -106.18c-187.74,-232.12 -413.27,-417.44 -661.04,-554.16 -260.53,-143.74 -545.51,-233.4 -836.89,-266.88 -291.5,-33.48 -589.48,-10.78 -875.73,70.17 -275.33,77.86 -540.32,209.83 -778.76,397.57l-415.61 327.2 0 -32.58zm2753.4 2663.22c-1892.79,1514.28 -3457.63,2720.65 -4813.77,3677.07 -1362.38,960.79 -2519.1,1673.67 -3590.99,2197.49 -1083.23,529.39 -2079.45,866.85 -3110.85,1072.04 -1029.76,204.87 -2092.51,277.46 -3310.82,277.46 -687.99,0 -1368.5,-46.65 -2041.81,-127.83 -671.06,-80.92 -1335.95,-196.6 -1994.69,-334.8 -1306.14,-274.05 -2577.49,-634.87 -3827.45,-989.93l-14.8 -4.02c-1140.95,-324.11 -2253.03,-640.03 -3352.61,-885.85 -1100.36,-245.96 -2194.52,-423.65 -3304.76,-472.98l-245.96 -10.93 0 -4916.02 5096.18 0c29.46,0 58.25,-3.41 85.76,-9.85 27.77,-6.53 54.9,-16.43 80.66,-29.26 25.96,-12.97 50.38,-28.85 72.53,-47.2l0.2 0.23c21.68,-18.04 41.44,-38.64 58.6,-61.51 206.42,-274.69 439.5,-520.01 694.2,-733.27 257.56,-215.68 538.42,-399.58 837.18,-548.94 299.34,-149.66 615.03,-264.11 941.82,-340.69 324.02,-75.96 659.41,-115.19 1000.97,-115.19 113.9,0 228.74,4.6 344.13,13.78 112.74,8.95 227.49,22.76 343.75,41.26 113.79,18.1 226.55,40.65 337.78,67.54 112.45,27.16 222.44,58.39 329.56,93.56 763.96,250.94 1500.15,481.2 2218.21,685.63 716.64,204 1413.02,381.6 2097.9,527.38 682.75,145.34 1356,259.57 2029.01,337.4 671.59,77.68 1343.76,119.12 2025.81,119.12l644.87 0c204.41,0 399.87,40.97 578.52,115.04 185.41,76.93 352.26,189.49 491.66,328.89 139.4,139.4 251.96,306.22 328.86,491.66 74.1,178.68 115.07,374.17 115.07,578.52 0,203.88 -40.88,400.13 -115.42,579.95 -76.58,184.77 -188.94,352 -329.06,492.15l-0.38 0.38c-138.61,138.58 -304.67,250.8 -490.4,327.46 -177.92,73.43 -373.15,114.17 -578.84,114.17l-7636.84 0c-51.14,0 -99.36,9.91 -142.69,27.8 -45.25,18.68 -86.22,46.27 -120.55,80.51 -34.24,34.33 -61.83,75.29 -80.51,120.55 -17.86,43.33 -27.8,91.55 -27.8,142.69 0,51.14 9.91,99.33 27.8,142.69 18.68,45.25 46.27,86.22 80.51,120.55 34.33,34.24 75.29,61.83 120.55,80.51 43.33,17.89 91.55,27.8 142.69,27.8l102.8 0 0 1.02 7431.24 -0.03 0 -1.02 102.8 0c168.42,0 334.25,-18.94 494.51,-55.31 163.18,-37.01 321.87,-92.31 472.92,-164.17l21.48 -10.05c143.57,-70.08 279.64,-155.11 405.46,-253.65 130.4,-102.1 250.21,-219.01 356.42,-349.11l22.55 -27.74 11.33 -7.98c711.39,-503.2 1420.69,-995.67 2132.49,-1489.92 1542.92,-1071.34 3098.02,-2151.13 4568.13,-3262.66l0.2 0.26c159.36,-127.04 336.55,-216.7 520.74,-270.06 192.72,-55.83 393.05,-72.23 588.6,-50.53 196.05,21.74 388.01,81.68 563.57,178.24 168.22,92.57 321.9,219.44 450.05,379.24l4.6 5.13c126.81,159.71 216.35,337.34 269.71,522.14 55.42,191.97 71.71,391.19 50.15,585.72 -21.71,195.84 -81.65,387.54 -178.36,562.93 -92.89,168.51 -220.32,322.51 -380.9,451.1l-4.25 3.44z"/>
  <g id="_2171730214144">
   <path class="fil0" d="M13490.54 6355.06c180.25,0 326.29,-146.1 326.29,-326.29l0 -2499.37c0,-419.77 -341.56,-761.31 -761.34,-761.31l-5655.5 0c-419.77,0 -761.34,341.53 -761.34,761.31l0 5873.05c0,419.77 341.56,761.31 761.34,761.31l5655.5 0c419.77,0 761.31,-341.53 761.31,-761.31l0 -1870.47c0,-180.19 -146.04,-326.27 -326.29,-326.27 -180.22,0 -326.27,146.07 -326.27,326.27l0 1870.47c0,59.94 -48.78,108.75 -108.77,108.75l-557.22 0 0 -157.76c0,-666.43 -542.13,-1208.59 -1208.53,-1208.59l-2150.76 0.03c-666.4,0 -1208.59,542.13 -1208.59,1208.59l0 157.73 -530.38 0c-60,0 -108.77,-48.84 -108.77,-108.77l0 -5873.02c0,-59.97 48.78,-108.77 108.77,-108.77l5655.5 0.03c60,0 108.75,48.81 108.75,108.77l0 2499.37c0,180.19 146.04,326.29 326.29,326.29l0 -0.03zm-4907.62 2998.4c0,-306.63 249.4,-556.02 556,-556.02l2150.76 -0.03c306.57,0 556,249.43 556,556.02l0 157.76 -3262.8 0 0 -157.76 0.06 0.03z"/>
   <path class="fil0" d="M8675.95 5953.91c0,848.29 690.09,1538.35 1538.35,1538.35 848.23,0 1538.32,-690.12 1538.32,-1538.35 0,-848.23 -690.09,-1538.38 -1538.32,-1538.38 -848.26,0 -1538.35,690.09 -1538.35,1538.38zm2424.16 0c0,488.42 -397.36,885.79 -885.79,885.79 -488.42,0 -885.79,-397.36 -885.79,-885.79 0,-488.45 397.36,-885.82 885.79,-885.82 488.42,0 885.79,397.36 885.79,885.82z"/>
   <path class="fil0" d="M25432.36 4399.47l0 -1087.6c0,-299.87 -243.92,-543.79 -543.82,-543.79l-9440.32 0c-299.9,0 -543.82,243.92 -543.82,543.79l0 1087.6c0,299.9 243.92,543.82 543.82,543.82l9440.32 0c299.9,0 543.82,-243.92 543.82,-543.82zm-652.56 -108.75l-9222.83 0 0 -870.11 9222.83 0.03 0 870.08z"/>
   <path class="fil0" d="M15208.93 6248.41l1935.94 0c180.22,0 326.27,-146.1 326.27,-326.29 0,-180.19 -146.04,-326.29 -326.27,-326.29l-1935.94 0c-180.25,0 -326.29,146.1 -326.29,326.29 0,180.19 146.04,326.29 326.29,326.29z"/>
   <path class="fil0" d="M15208.93 7553.5l2370.96 0c180.25,0 326.29,-146.07 326.29,-326.27 0,-180.19 -146.04,-326.29 -326.29,-326.29l-2370.96 0c-180.25,0 -326.29,146.1 -326.29,326.29 0,180.19 146.04,326.27 326.29,326.27z"/>
   <path class="fil0" d="M15208.93 8858.63l1500.88 0c180.25,0 326.29,-146.07 326.29,-326.27 0,-180.19 -146.04,-326.29 -326.29,-326.29l-1500.88 0c-180.25,0 -326.29,146.1 -326.29,326.29 0,180.19 146.04,326.27 326.29,326.27z"/>
   <path class="fil0" d="M19994.38 6248.41l1935.92 0c180.22,0 326.27,-146.1 326.27,-326.29 0,-180.19 -146.04,-326.29 -326.27,-326.29l-1935.92 0c-180.25,0 -326.29,146.1 -326.29,326.29 0,180.19 146.04,326.29 326.29,326.29z"/>
   <path class="fil0" d="M19994.38 7553.5l2806 0c180.22,0 326.27,-146.07 326.27,-326.27 0,-180.19 -146.04,-326.29 -326.27,-326.29l-2806 0c-180.25,0 -326.29,146.1 -326.29,326.29 0,180.19 146.04,326.27 326.29,326.27z"/>
   <path class="fil0" d="M19994.38 8858.63l3676.08 0c180.22,0 326.27,-146.07 326.27,-326.27 0,-180.19 -146.04,-326.29 -326.27,-326.29l-3676.08 0c-180.25,0 -326.29,146.1 -326.29,326.29 0,180.19 146.04,326.27 326.29,326.27z"/>
   <path class="fil0" d="M15187.2 10141.98l9897.13 0c180.22,0 326.27,-146.07 326.27,-326.27 0,-180.19 -146.04,-326.29 -326.27,-326.29l-9897.13 0c-180.25,0 -326.29,146.1 -326.29,326.29 0,180.19 146.04,326.27 326.29,326.27z"/>
   <path class="fil0" d="M18544.38 12469.46c0,180.19 146.04,326.27 326.29,326.27l6213.65 0c180.22,0 326.27,-146.07 326.27,-326.27 0,-180.19 -146.04,-326.29 -326.27,-326.29l-6213.65 0c-180.25,0 -326.29,146.1 -326.29,326.29z"/>
   <path class="fil0" d="M15187.2 12795.73l2150.7 0c180.22,0 326.27,-146.07 326.27,-326.27 0,-180.19 -146.04,-326.29 -326.27,-326.29l-2150.7 0c-180.25,0 -326.29,146.1 -326.29,326.29 0,180.19 146.04,326.27 326.29,326.27z"/>
   <path class="fil0" d="M16403.47 10794.54c-180.25,0 -326.29,146.1 -326.29,326.29 0,180.19 146.04,326.27 326.29,326.27l1293.32 0c180.22,0 326.27,-146.07 326.27,-326.27 0,-180.19 -146.04,-326.29 -326.27,-326.29l-1293.32 0z"/>
   <path class="fil0" d="M20787.88 11447.1c180.25,0 326.27,-146.07 326.27,-326.27 0,-180.19 -146.01,-326.29 -326.27,-326.29l-1293.32 0c-180.25,0 -326.29,146.1 -326.29,326.29 0,180.19 146.04,326.27 326.29,326.27l1293.32 0z"/>
   <path class="fil0" d="M23891.94 11447.1c180.22,0 326.27,-146.07 326.27,-326.27 0,-180.19 -146.04,-326.29 -326.27,-326.29l-1293.35 0c-180.22,0 -326.27,146.1 -326.27,326.29 0,180.19 146.04,326.27 326.27,326.27l1293.35 0z"/>
   <path class="fil0" d="M8661.59 10816.31c-395.79,0 -717.8,322.01 -717.8,717.8l0 522.05c0,395.79 322.01,717.8 717.8,717.8l3132.29 0.03c395.79,0 717.8,-322.01 717.8,-717.83l0 -522.05c0,-395.79 -322.01,-717.8 -717.8,-717.8l-3132.29 0zm3197.56 717.8l0 522.05c0,35.99 -29.28,65.27 -65.27,65.27l-3132.29 -0.03c-35.96,0 -65.24,-29.26 -65.24,-65.24l0 -522.05c0,-35.99 29.28,-65.27 65.24,-65.27l3132.29 0.03c35.99,0 65.27,29.28 65.27,65.24z"/>
   <path class="fil1" d="M6140.22 0l19726.33 0c309.77,0 591.19,126.52 795.02,330.35 203.83,203.83 330.35,485.25 330.35,795.02l0 13493.57c0,309.77 -126.52,591.19 -330.35,795.02 -203.83,203.83 -485.25,330.35 -795.02,330.35l-19726.33 0c-309.77,0 -591.19,-126.52 -795.02,-330.35 -203.83,-203.83 -330.35,-485.25 -330.35,-795.02l0 -13493.57c0,-309.77 126.52,-591.19 330.35,-795.02 203.83,-203.83 485.25,-330.35 795.02,-330.35zm19726.33 580.06l-19726.33 0c-149.66,0 -285.97,61.45 -384.92,160.38 -98.95,98.95 -160.38,235.27 -160.38,384.92l0 13493.57c0,149.69 61.42,285.97 160.38,384.92 98.95,98.95 235.27,160.38 384.92,160.38l19726.33 0c149.66,0 285.97,-61.42 384.92,-160.38 98.95,-98.95 160.38,-235.24 160.38,-384.92l0 -13493.57c0,-149.66 -61.42,-285.97 -160.38,-384.92 -98.95,-98.93 -235.27,-160.38 -384.92,-160.38z"/>
  </g>
 </g>
</svg>
