<?xml version="1.0" encoding="UTF-8"?>
<!DOCTYPE svg PUBLIC "-//W3C//DTD SVG 1.1//EN" "http://www.w3.org/Graphics/SVG/1.1/DTD/svg11.dtd">
<!-- Creator: CorelDRAW 2020 (64-Bit) -->
<svg xmlns="http://www.w3.org/2000/svg" xml:space="preserve" width="96.7474mm" height="74.6054mm" version="1.1" style="shape-rendering:geometricPrecision; text-rendering:geometricPrecision; image-rendering:optimizeQuality; fill-rule:evenodd; clip-rule:evenodd"
viewBox="0 0 5341.68 4119.16"
 xmlns:xlink="http://www.w3.org/1999/xlink"
 xmlns:xodm="http://www.corel.com/coreldraw/odm/2003">
 <defs>
  <style type="text/css">
   <![CDATA[
    .fil0 {fill:black;fill-rule:nonzero}
    .fil1 {fill:black;fill-rule:nonzero}
   ]]>
  </style>
 </defs>
 <g id="Layer_x0020_1">
  <metadata id="CorelCorpID_0Corel-Layer"/>
  <g id="_2171728081552">
   <path class="fil0" d="M4309.05 4119.16c-11.36,0 -22.72,-2.24 -33.39,-6.71 -40.96,-17.38 -999.24,-431.46 -999.24,-1277.87l0 -719.23c0,-37 23.58,-69.7 58.51,-81.58l946.58 -319.6c17.89,-6.02 37.35,-6.02 55.07,0l946.58 319.6c34.94,11.71 58.51,44.57 58.51,81.58l0 719.23c0,846.41 -958.28,1260.49 -999.24,1277.87 -10.67,4.48 -22.03,6.71 -33.39,6.71zm-860.53 -1941.86l0 657.27c0,651.24 697.89,1025.4 860.52,1103.71 162.47,-78.48 860.53,-454.18 860.53,-1103.71l0 -657.27 -860.53 -290.68 -860.52 290.68z"/>
   <path class="fil0" d="M4223 3258.64c-1.55,0 -3.27,0 -4.65,-0.17 -24.61,-1.38 -47.16,-12.91 -62.47,-32.18l-344.21 -430.26c-29.6,-37.17 -23.75,-91.22 13.42,-120.99 37.35,-29.26 91.22,-23.4 120.99,13.42l283.98 355.06 534.39 -534.22c33.56,-33.56 88.12,-33.56 121.68,0 33.56,33.56 33.56,88.12 0,121.68l-602.37 602.36c-16.01,16.18 -38.04,25.3 -60.76,25.3l0.01 0z"/>
  </g>
  <g id="_2171728080208">
   <path class="fil0" d="M1909.83 1431.99c40.61,0 73.52,-32.92 73.52,-73.52l0 -563.19c0,-94.59 -76.96,-171.55 -171.55,-171.55l-1274.36 0c-94.59,0 -171.55,76.96 -171.55,171.55l0 1323.37c0,94.59 76.96,171.55 171.55,171.55l1274.36 0c94.58,0 171.55,-76.96 171.55,-171.55l0 -421.47c0,-40.6 -32.91,-73.52 -73.52,-73.52 -40.61,0 -73.52,32.92 -73.52,73.52l0 421.47c0,13.51 -10.99,24.51 -24.51,24.51l-125.56 0 0 -35.55c0,-150.17 -122.16,-272.33 -272.32,-272.33l-484.63 0c-150.16,0 -272.33,122.16 -272.33,272.33l0 35.55 -119.51 0c-13.52,0 -24.51,-11 -24.51,-24.51l0 -1323.37c0,-13.51 10.99,-24.51 24.51,-24.51l1274.36 0.01c13.52,0 24.51,11 24.51,24.51l0 563.19c0,40.6 32.91,73.53 73.52,73.53l0 -0.01zm-1105.84 675.63c0,-69.09 56.2,-125.28 125.29,-125.28l484.63 -0.01c69.08,0 125.28,56.2 125.28,125.29l0 35.55 -735.21 0 0 -35.55 0.01 0z"/>
   <path class="fil0" d="M824.96 1341.6c0,191.14 155.5,346.63 346.63,346.63 191.14,0 346.64,-155.5 346.64,-346.63 0,-191.14 -155.5,-346.65 -346.64,-346.65 -191.13,0 -346.63,155.5 -346.63,346.65zm546.24 0c0,110.06 -89.54,199.59 -199.6,199.59 -110.06,0 -199.59,-89.54 -199.59,-199.59 0,-110.07 89.54,-199.6 199.59,-199.6 110.06,0 199.6,89.54 199.6,199.6z"/>
   <path class="fil0" d="M4600.68 991.34l0 -245.07c0,-67.57 -54.96,-122.53 -122.53,-122.53l-2127.2 0c-67.57,0 -122.53,54.96 -122.53,122.53l0 245.07c0,67.57 54.96,122.53 122.53,122.53l2127.2 0c67.57,0 122.53,-54.96 122.53,-122.53zm-147.04 -24.51l-2078.18 0 0 -196.05 2078.18 0 0 196.05z"/>
   <path class="fil0" d="M2297.04 1407.95l436.22 0c40.61,0 73.52,-32.92 73.52,-73.52 0,-40.6 -32.91,-73.52 -73.52,-73.52l-436.22 0c-40.61,0 -73.52,32.92 -73.52,73.52 0,40.6 32.91,73.52 73.52,73.52z"/>
   <path class="fil0" d="M2297.04 1702.03l534.25 0c40.61,0 73.52,-32.92 73.52,-73.52 0,-40.6 -32.91,-73.52 -73.52,-73.52l-534.25 0c-40.61,0 -73.52,32.92 -73.52,73.52 0,40.6 32.91,73.52 73.52,73.52z"/>
   <path class="fil0" d="M2297.04 1996.12l338.19 0c40.61,0 73.52,-32.92 73.52,-73.52 0,-40.6 -32.91,-73.52 -73.52,-73.52l-338.19 0c-40.61,0 -73.52,32.92 -73.52,73.52 0,40.6 32.91,73.52 73.52,73.52z"/>
   <path class="fil0" d="M3375.34 1407.95l436.22 0c40.61,0 73.52,-32.92 73.52,-73.52 0,-40.6 -32.91,-73.52 -73.52,-73.52l-436.22 0c-40.61,0 -73.52,32.92 -73.52,73.52 0,40.6 32.91,73.52 73.52,73.52z"/>
   <path class="fil0" d="M3375.34 1702.03l632.28 0c40.61,0 73.52,-32.92 73.52,-73.52 0,-40.6 -32.91,-73.52 -73.52,-73.52l-632.28 0c-40.61,0 -73.52,32.92 -73.52,73.52 0,40.6 32.91,73.52 73.52,73.52z"/>
   <path class="fil0" d="M3375.34 1996.12l579.03 0c38.02,-65.98 89.18,-114.82 146.74,-147.04l-725.78 0c-40.61,0 -73.52,32.92 -73.52,73.52 0,40.6 32.91,73.52 73.52,73.52z"/>
   <path class="fil0" d="M2292.13 2285.3l1172.09 0c29.31,-68.54 73.53,-115.16 116.67,-147.04l-1288.76 0c-40.61,0 -73.52,32.92 -73.52,73.52 0,40.6 32.91,73.52 73.52,73.52z"/>
   <path class="fil0" d="M3048.61 2809.75c0,40.6 32.91,73.52 73.52,73.52l254.7 0c-9.7,-47.76 -8.59,-98.48 -8.46,-147.04l-246.24 0c-40.61,0 -73.52,32.92 -73.52,73.52z"/>
   <path class="fil0" d="M2292.13 2883.27l484.62 0c40.61,0 73.52,-32.92 73.52,-73.52 0,-40.6 -32.91,-73.52 -73.52,-73.52l-484.62 0c-40.61,0 -73.52,32.92 -73.52,73.52 0,40.6 32.91,73.52 73.52,73.52z"/>
   <path class="fil0" d="M2566.2 2432.34c-40.61,0 -73.52,32.92 -73.52,73.53 0,40.6 32.91,73.52 73.52,73.52l291.43 0c40.61,0 73.52,-32.92 73.52,-73.52 0,-40.6 -32.91,-73.53 -73.52,-73.53l-291.43 0z"/>
   <path class="fil0" d="M3414.28 2432.34l-151.56 0c-40.61,0 -73.52,32.92 -73.52,73.53 0,40.6 32.91,73.52 73.52,73.52l127.26 0c0.37,-54 4.88,-96.54 24.3,-147.05z"/>
   <path class="fil0" d="M821.72 2437.24c-89.18,0 -161.75,72.56 -161.75,161.75l0 117.64c0,89.18 72.56,161.74 161.75,161.74l705.8 0.01c89.18,0 161.74,-72.56 161.74,-161.75l0 -117.63c0,-89.18 -72.55,-161.75 -161.74,-161.75l-705.8 -0.01zm720.5 161.75l0 117.63c0,8.11 -6.6,14.71 -14.7,14.71l-705.8 -0.01c-8.11,0 -14.7,-6.6 -14.7,-14.7l0 -117.64c0,-8.11 6.6,-14.7 14.7,-14.7l705.8 0c8.11,0 14.7,6.6 14.7,14.71z"/>
   <path class="fil1" d="M253.57 0l4444.95 0c139.59,0 253.57,113.98 253.57,253.57l0 1805.81c-41.23,-21.48 -85.39,-34.62 -130.7,-39.43l0 -1766.38c0,-67.45 -55.42,-122.87 -122.87,-122.87l-4444.95 0c-67.45,0 -122.87,55.42 -122.87,122.87l0 3040.52c0,67.45 55.42,122.87 122.87,122.87l3378.21 0c18.59,47.24 51.47,95.22 88.01,130.7l-3466.21 0c-139.59,0 -253.57,-113.98 -253.57,-253.57l0 -3040.52c0,-139.59 113.98,-253.57 253.57,-253.57z"/>
  </g>
 </g>
</svg>
