<?xml version="1.0" encoding="UTF-8"?>
<!DOCTYPE svg PUBLIC "-//W3C//DTD SVG 1.1//EN" "http://www.w3.org/Graphics/SVG/1.1/DTD/svg11.dtd">
<!-- Creator: CorelDRAW 2019 (64-Bit) -->
<svg xmlns="http://www.w3.org/2000/svg" xml:space="preserve" width="32.3629mm" height="32.363mm" version="1.1" style="shape-rendering:geometricPrecision; text-rendering:geometricPrecision; image-rendering:optimizeQuality; fill-rule:evenodd; clip-rule:evenodd"
viewBox="0 0 583.95 583.95"
 xmlns:xlink="http://www.w3.org/1999/xlink"
 xmlns:xodm="http://www.corel.com/coreldraw/odm/2003">
 <defs>
  <style type="text/css">
   <![CDATA[
    .fil0 {fill:black;fill-rule:nonzero}
   ]]>
  </style>
 </defs>
 <g id="Layer_x0020_1">
  <metadata id="CorelCorpID_0Corel-Layer"/>
  <polygon class="fil0" points="243.31,97.33 340.64,97.33 340.64,116.79 243.31,116.79 "/>
  <polygon class="fil0" points="243.31,136.26 340.64,136.26 340.64,155.72 243.31,155.72 "/>
  <path class="fil0" d="M535.29 506.09l0 -77.86c0,-4.32 -2.85,-8.13 -7.01,-9.34l-226.57 -66.09 0 -119.22 68.13 0c5.38,0 9.73,-4.36 9.73,-9.73l0 -155.72c0,-2.58 -1.02,-5.06 -2.85,-6.88l-58.4 -58.4c-1.82,-1.83 -4.29,-2.85 -6.88,-2.85l-97.32 0c-5.38,0 -9.73,4.36 -9.73,9.73l0 214.12c0,5.37 4.35,9.73 9.73,9.73l68.13 0 0 119.22 -226.57 66.09c-4.16,1.22 -7.01,5.02 -7.01,9.34l0 77.86c0,4.32 2.85,8.13 7.01,9.34l233.58 68.13c0.9,0.26 1.8,0.39 2.73,0.39 0.92,0 1.83,-0.13 2.72,-0.39l233.58 -68.13c4.16,-1.22 7.01,-5.02 7.01,-9.34zm-214.12 -472.86l25.17 25.17 -25.17 0 0 -25.17zm-97.32 -13.76l77.86 0 0 48.66c0,5.37 4.35,9.73 9.73,9.73l48.66 0 0 136.25 -136.26 0 0 -194.65zm58.4 353.61l0 51.13 -22.32 -22.32 -13.76 13.76 38.93 38.93c1.9,1.9 4.39,2.85 6.88,2.85 2.49,0 4.98,-0.95 6.88,-2.85l38.93 -38.93 -13.76 -13.76 -22.32 22.32 0 -51.13 189.09 55.15 -198.82 57.99 -198.83 -57.99 189.09 -55.15zm-214.12 68.13l214.12 62.45 0 57.59 -214.12 -62.45 0 -57.59zm233.58 120.04l0 -57.59 214.12 -62.46 0 57.59 -214.12 62.45z"/>
  <polygon class="fil0" points="243.31,58.4 282.24,58.4 282.24,77.86 243.31,77.86 "/>
  <path class="fil0" d="M9.73 233.58l68.13 0c0,26.83 21.83,48.66 48.66,48.66l29.2 0c16.1,0 29.2,13.1 29.2,29.2l0 15.43 -22.32 -22.32 -13.76 13.76 38.93 38.93c1.9,1.9 4.39,2.85 6.88,2.85 2.49,0 4.98,-0.95 6.88,-2.85l38.93 -38.93 -13.76 -13.76 -22.32 22.32 0 -15.43c0,-26.83 -21.83,-48.66 -48.66,-48.66l-29.2 0c-16.1,0 -29.2,-13.1 -29.2,-29.2l68.13 0c5.38,0 9.73,-4.36 9.73,-9.73l0 -155.72c0,-2.58 -1.02,-5.06 -2.85,-6.88l-58.4 -58.4c-1.82,-1.83 -4.29,-2.85 -6.88,-2.85l-97.32 0c-5.38,0 -9.73,4.36 -9.73,9.73l0 214.12c0,5.37 4.35,9.73 9.73,9.73l0 0zm107.06 -200.35l25.17 25.17 -25.17 0 0 -25.17zm-97.32 -13.76l77.86 0 0 48.66c0,5.37 4.35,9.73 9.73,9.73l48.66 0 0 136.25 -136.25 0 0 -194.65z"/>
  <polygon class="fil0" points="38.93,97.33 136.25,97.33 136.25,116.79 38.93,116.79 "/>
  <polygon class="fil0" points="38.93,136.26 136.25,136.26 136.25,155.72 38.93,155.72 "/>
  <polygon class="fil0" points="38.93,175.19 136.25,175.19 136.25,194.65 38.93,194.65 "/>
  <polygon class="fil0" points="38.93,58.4 77.86,58.4 77.86,77.86 38.93,77.86 "/>
  <path class="fil0" d="M583.95 223.85l0 -155.72c0,-2.58 -1.02,-5.06 -2.85,-6.88l-58.4 -58.4c-1.82,-1.83 -4.29,-2.85 -6.88,-2.85l-97.32 0c-5.38,0 -9.73,4.36 -9.73,9.73l0 214.12c0,5.37 4.35,9.73 9.73,9.73l68.13 0c0,16.1 -13.1,29.2 -29.2,29.2l-29.2 0c-26.83,0 -48.66,21.83 -48.66,48.66l0 15.43 -22.32 -22.32 -13.76 13.76 38.93 38.93c1.9,1.9 4.39,2.85 6.88,2.85 2.49,0 4.98,-0.95 6.88,-2.85l38.93 -38.93 -13.76 -13.76 -22.32 22.32 0 -15.43c0,-16.1 13.1,-29.2 29.2,-29.2l29.2 0c26.83,0 48.66,-21.83 48.66,-48.66l68.13 0c5.38,0 9.73,-4.36 9.73,-9.73zm-58.39 -190.62l25.17 25.17 -25.17 0 0 -25.17zm-97.33 180.89l0 -194.65 77.86 0 0 48.66c0,5.37 4.35,9.73 9.73,9.73l48.66 0 0 136.25 -136.26 0z"/>
  <polygon class="fil0" points="447.7,97.33 545.02,97.33 545.02,116.79 447.7,116.79 "/>
  <polygon class="fil0" points="447.7,136.26 545.02,136.26 545.02,155.72 447.7,155.72 "/>
  <polygon class="fil0" points="447.7,175.19 545.02,175.19 545.02,194.65 447.7,194.65 "/>
  <polygon class="fil0" points="447.7,58.4 486.63,58.4 486.63,77.86 447.7,77.86 "/>
  <polygon class="fil0" points="243.31,175.19 262.78,175.19 262.78,194.65 243.31,194.65 "/>
  <polygon class="fil0" points="282.24,175.19 301.71,175.19 301.71,194.65 282.24,194.65 "/>
  <polygon class="fil0" points="321.17,175.19 340.64,175.19 340.64,194.65 321.17,194.65 "/>
 </g>
</svg>
