<?xml version="1.0" encoding="UTF-8"?>
<!DOCTYPE svg PUBLIC "-//W3C//DTD SVG 1.1//EN" "http://www.w3.org/Graphics/SVG/1.1/DTD/svg11.dtd">
<!-- Creator: CorelDRAW 2019 (64-Bit) -->
<svg xmlns="http://www.w3.org/2000/svg" xml:space="preserve" width="26.4965mm" height="26.4717mm" version="1.1" style="shape-rendering:geometricPrecision; text-rendering:geometricPrecision; image-rendering:optimizeQuality; fill-rule:evenodd; clip-rule:evenodd"
viewBox="0 0 444 443.59"
 xmlns:xlink="http://www.w3.org/1999/xlink"
 xmlns:xodm="http://www.corel.com/coreldraw/odm/2003"
 enable-background="new 0 0 24 24">
 <defs>
  <style type="text/css">
   <![CDATA[
    .fil0 {fill:black;fill-rule:nonzero}
   ]]>
  </style>
 </defs>
 <g id="Layer_x0020_1">
  <metadata id="CorelCorpID_0Corel-Layer"/>
  <g id="_2463964441760">
   <g>
    <g>
     <path class="fil0" d="M323.75 443.59c-66.31,0 -120.25,-53.95 -120.25,-120.25 0,-66.31 53.95,-120.25 120.25,-120.25 66.31,0 120.25,53.95 120.25,120.25 0,66.31 -53.95,120.25 -120.25,120.25zm0 -222.01c-56.09,0 -101.75,45.64 -101.75,101.75 0,56.11 45.66,101.75 101.75,101.75 56.09,0 101.75,-45.64 101.75,-101.75 0,-56.11 -45.66,-101.75 -101.75,-101.75z"/>
    </g>
   </g>
   <g>
    <g>
     <path class="fil0" d="M333 388.09c-5.11,0 -9.25,-4.15 -9.25,-9.25l0 -101.75 -9.25 0c-5.11,0 -9.25,-4.14 -9.25,-9.25 0,-5.11 4.14,-9.25 9.25,-9.25l18.5 0c5.11,0 9.25,4.14 9.25,9.25l0 111c0,5.11 -4.15,9.25 -9.25,9.25z"/>
    </g>
   </g>
   <g>
    <g>
     <path class="fil0" d="M76.38 369.59c-1.89,0 -3.74,-0.57 -5.33,-1.68 -2.89,-2.04 -4.37,-5.55 -3.79,-9.05l19.98 -122.57 -84.6 -86.75c-2.42,-2.48 -3.26,-6.11 -2.17,-9.4 1.11,-3.29 3.96,-5.68 7.38,-6.2l116.57 -17.82 52.21 -111.24c3.03,-6.51 13.69,-6.51 16.72,0l52.21 111.24 116.57 17.82c3.44,0.52 6.29,2.92 7.38,6.2 1.09,3.29 0.26,6.92 -2.17,9.4l-15.67 16.06c-3.53,3.68 -9.4,3.74 -13.08,0.17 -3.64,-3.57 -3.72,-9.42 -0.15,-13.08l3.09 -3.16 -103.64 -15.84c-3.05,-0.46 -5.68,-2.42 -6.97,-5.22l-45.94 -97.87 -45.94 97.87c-1.31,2.79 -3.92,4.75 -6.97,5.22l-103.66 15.82 75.3 77.18c2.05,2.11 2.98,5.05 2.52,7.96l-17.67 108.38 64.75 -35.8c4.48,-2.48 10.1,-0.85 12.58,3.63 2.48,4.48 0.85,10.1 -3.61,12.56l-81.42 45.01c-1.42,0.78 -2.96,1.17 -4.5,1.17l0 -0z"/>
    </g>
   </g>
  </g>
 </g>
</svg>
