<svg id="startup" xmlns="http://www.w3.org/2000/svg" width="48.003" height="48.003" viewBox="0 0 48.003 48.003">
  <g id="Group_3686" data-name="Group 3686" transform="translate(23.588 22.541)">
    <g id="Group_3685" data-name="Group 3685" transform="translate(0)">
      <path id="Path_9041" data-name="Path 9041" d="M253.188,240.693a.938.938,0,1,0,0,1.326A.938.938,0,0,0,253.188,240.693Z" transform="translate(-251.587 -240.418)" fill="#d31b88"/>
    </g>
  </g>
  <g id="Group_3688" data-name="Group 3688" transform="translate(29.121 9.508)">
    <g id="Group_3687" data-name="Group 3687" transform="translate(0)">
      <path id="Path_9042" data-name="Path 9042" d="M318.6,102.789a4.688,4.688,0,1,0,0,6.63A4.686,4.686,0,0,0,318.6,102.789Zm-1.326,5.3a2.813,2.813,0,1,1,0-3.978A2.816,2.816,0,0,1,317.278,108.093Z" transform="translate(-310.603 -101.415)" fill="#d31b88"/>
    </g>
  </g>
  <g id="Group_3690" data-name="Group 3690" transform="translate(9.002 0)">
    <g id="Group_3689" data-name="Group 3689" transform="translate(0 0)">
      <path id="Path_9043" data-name="Path 9043" d="M134.744.275a.934.934,0,0,0-.7-.274,41.65,41.65,0,0,0-11.259,2.331,31.39,31.39,0,0,0-11.911,7.224c-.694.694-1.369,1.429-2.015,2.194a6.871,6.871,0,0,0-7.064-.407c-3.57,1.911-5.78,7.1-5.78,10.81a.938.938,0,0,0,1.6.663,5.969,5.969,0,0,1,4.964-1.665l.328.328a32.976,32.976,0,0,0-1.548,4.554,2.654,2.654,0,0,0,.114,1.629,8.879,8.879,0,0,0-2.532,1.785c-2.413,2.413-2.9,8.3-2.923,8.544A.937.937,0,0,0,96.956,39l.074,0c.249-.02,6.131-.51,8.544-2.923a8.879,8.879,0,0,0,1.785-2.531,2.648,2.648,0,0,0,1.629.113,32.98,32.98,0,0,0,4.553-1.548l.328.328A5.969,5.969,0,0,1,112.2,37.4a.938.938,0,0,0,.663,1.6c3.711,0,8.9-2.21,10.81-5.78a6.871,6.871,0,0,0-.407-7.064c.764-.646,1.5-1.321,2.194-2.015a31.393,31.393,0,0,0,7.224-11.911A41.65,41.65,0,0,0,135.018.971.938.938,0,0,0,134.744.275ZM98.114,20.135c.582-2.819,2.274-5.912,4.569-7.14a5,5,0,0,1,4.993.235,37.908,37.908,0,0,0-3.939,6.421.989.989,0,0,0-.5-.291A8.013,8.013,0,0,0,98.114,20.135Zm6.134,14.614c-1.289,1.289-4.313,1.969-6.225,2.247.278-1.912.958-4.936,2.247-6.225a6.757,6.757,0,0,1,2.4-1.578l3.155,3.155A6.755,6.755,0,0,1,104.248,34.749Zm4.274-2.909a.88.88,0,0,1-.819-.266l-1.836-1.836-2.421-2.421a.88.88,0,0,1-.267-.819,30.444,30.444,0,0,1,1.171-3.581l7.753,7.753A30.423,30.423,0,0,1,108.522,31.84Zm13.5.5c-1.228,2.3-4.321,3.987-7.14,4.569a7.98,7.98,0,0,0,.768-5.149.979.979,0,0,0-.285-.474,37.923,37.923,0,0,0,6.421-3.939A5,5,0,0,1,122.024,32.336Zm2.114-9.52a34.031,34.031,0,0,1-2.7,2.426,36.021,36.021,0,0,1-7.474,4.633l-8.815-8.815a36.015,36.015,0,0,1,4.633-7.474,34.023,34.023,0,0,1,2.426-2.7A29.235,29.235,0,0,1,122.861,4.3l7.856,7.856A29.233,29.233,0,0,1,124.138,22.816Zm7.254-12.635-6.553-6.553a42.151,42.151,0,0,1,8.227-1.673A42.158,42.158,0,0,1,131.392,10.181Z" transform="translate(-96.018 0)" fill="#d31b88"/>
    </g>
  </g>
  <g id="Group_3692" data-name="Group 3692" transform="translate(18.284 38.452)">
    <g id="Group_3691" data-name="Group 3691" transform="translate(0)">
      <path id="Path_9044" data-name="Path 9044" d="M199.273,410.4a.938.938,0,0,0-1.326,0l-2.651,2.652a.938.938,0,1,0,1.326,1.326l2.651-2.652A.938.938,0,0,0,199.273,410.4Z" transform="translate(-195.021 -410.121)" fill="#d31b88"/>
    </g>
  </g>
  <g id="Group_3694" data-name="Group 3694" transform="translate(5.024 25.193)">
    <g id="Group_3693" data-name="Group 3693">
      <path id="Path_9045" data-name="Path 9045" d="M57.845,268.976a.938.938,0,0,0-1.326,0l-2.652,2.651a.938.938,0,1,0,1.326,1.326l2.652-2.651A.938.938,0,0,0,57.845,268.976Z" transform="translate(-53.592 -268.701)" fill="#d31b88"/>
    </g>
  </g>
  <g id="Group_3696" data-name="Group 3696" transform="translate(7.955 39.778)">
    <g id="Group_3695" data-name="Group 3695">
      <path id="Path_9046" data-name="Path 9046" d="M92.8,424.546a.938.938,0,0,0-1.326,0l-6.351,6.35a.938.938,0,1,0,1.326,1.326l6.351-6.35A.938.938,0,0,0,92.8,424.546Z" transform="translate(-84.851 -424.271)" fill="#d31b88"/>
    </g>
  </g>
  <g id="Group_3698" data-name="Group 3698" transform="translate(0.455 39.778)">
    <g id="Group_3697" data-name="Group 3697">
      <path id="Path_9047" data-name="Path 9047" d="M12.8,424.546a.938.938,0,0,0-1.326,0L5.126,430.9a.938.938,0,1,0,1.326,1.326l6.351-6.35A.937.937,0,0,0,12.8,424.546Z" transform="translate(-4.851 -424.271)" fill="#d31b88"/>
    </g>
  </g>
  <g id="Group_3700" data-name="Group 3700" transform="translate(0 31.822)">
    <g id="Group_3699" data-name="Group 3699">
      <path id="Path_9048" data-name="Path 9048" d="M7.952,339.685a.938.938,0,0,0-1.326,0l-6.35,6.351A.938.938,0,0,0,1.6,347.362l6.35-6.351A.938.938,0,0,0,7.952,339.685Z" transform="translate(-0.001 -339.41)" fill="#d31b88"/>
    </g>
  </g>
  <g id="Group_3702" data-name="Group 3702" transform="translate(26.24 18.563)">
    <g id="Group_3701" data-name="Group 3701" transform="translate(0)">
      <path id="Path_9049" data-name="Path 9049" d="M282.8,198.265a.938.938,0,0,0-1.326,0l-1.326,1.326a.938.938,0,1,0,1.326,1.326l1.326-1.326A.938.938,0,0,0,282.8,198.265Z" transform="translate(-279.871 -197.99)" fill="#d31b88"/>
    </g>
  </g>
</svg>
