<?xml version="1.0" encoding="iso-8859-1"?>
<!-- Generator: Adobe Illustrator 19.0.0, SVG Export Plug-In . SVG Version: 6.00 Build 0)  -->
<svg version="1.1" id="Capa_1" xmlns="http://www.w3.org/2000/svg" xmlns:xlink="http://www.w3.org/1999/xlink" x="0px" y="0px"
	 viewBox="0 0 462.602 462.602" style="enable-background:new 0 0 462.602 462.602;" xml:space="preserve">
<g>
	<g>
		<path d="M462.179,208.602c-4.5-45.8-22.4-89.2-51.6-124.6c-3.5-4.3-9.8-4.9-14.1-1.4c-0.3,0.2-0.5,0.4-0.7,0.7l-82.7,83
			c-3.3,3.4-3.9,8.6-1.3,12.5c6.6,10.4,11.3,22,13.8,34.1c1,4.6,5.1,8,9.8,7.9h116.9c5.5,0,10-4.5,10-10c0-0.1,0-0.1,0-0.2
			C462.279,209.902,462.279,209.202,462.179,208.602z M343.279,200.802c-2.5-9-6-17.7-10.5-26l69.2-69.4
			c20.7,28.1,34.2,60.9,39.1,95.4H343.279z"/>
	</g>
</g>
<g>
	<g>
		<path d="M379.079,52.402c-0.2-0.2-0.5-0.4-0.7-0.6c-35.5-29.3-78.9-47.3-124.7-51.7c-0.7-0.1-1.3-0.1-2-0.1
			c-5.5-0.1-10.1,4.3-10.2,9.8c0,0.1,0,0.1,0,0.2v116.9c0,5.3,4.2,9.7,9.5,10c11.8,2.4,23,7.1,33.1,13.6c4,2.6,9.2,2.1,12.6-1.3
			l82.4-82.7C382.979,62.602,382.979,56.302,379.079,52.402z M287.979,129.502c-8.4-4.6-17.3-8.2-26.5-10.7v-97.6
			c34.6,4.9,67.4,18.4,95.4,39.2L287.979,129.502z"/>
	</g>
</g>
<g>
	<g>
		<path d="M207.479,0.502c-0.3,0-0.7,0-1,0.1c-108.5,10.8-195,98.8-205.7,209.2c-0.5,5.5,3.5,10.4,9,10.9c0.3,0.1,0.6,0.1,1,0.1
			h116.9c4.7,0,8.8-3.3,9.8-8c7.8-37.6,36.8-68,72.1-75.7c4.6-1,7.9-5.1,7.9-9.8v-116.8C217.479,5.002,212.979,0.502,207.479,0.502z
			 M197.479,119.602c-18.7,5.7-35.6,16.2-49,30.5c-13.6,14.3-23.4,31.7-28.7,50.7h-97.7c6.7-44.8,27.4-86.3,59-118.6
			c31.3-32.1,72.1-53.3,116.4-60.4V119.602z"/>
	</g>
</g>
<g>
	<g>
		<path d="M211.579,324.702c-0.1,0-0.2,0-0.2,0c-37.2-7.8-66.3-36.9-74.1-74.1c-1-4.6-5.1-7.9-9.8-7.8h-117.2
			c-2.8-0.1-5.5,1.1-7.4,3.1c-1.9,2.1-2.8,4.9-2.5,7.7c10.6,109.5,97.7,196.9,207.1,207.8c0.3,0,0.7,0,1,0c5.5,0,10-4.4,10-9.9
			c0,0,0.2-29.3,0.4-58.5c0.1-14.6,0.2-29.3,0.3-40.3c0-5.5,0.1-10.1,0.1-13.3c0-1.6,0-2.9,0-3.8
			C219.279,327.702,214.379,325.402,211.579,324.702z M198.579,440.202c-91.4-14.3-162.9-86.1-177-177.5l98-0.2
			c11,38.6,41.1,68.7,79.6,79.8C199.179,359.702,198.879,404.402,198.579,440.202z"/>
	</g>
</g>
<g>
	<g>
		<path d="M453.179,245.002c-0.3-0.2-0.7-0.2-1-0.2h-117c-4.7,0-8.8,3.3-9.8,7.9c-3.9,17.9-13,34.3-26.2,47.2
			c-13.2,13.1-29.9,22.1-48.2,25.9c-4.6,1-8,5-8,9.8l-0.5,117c0,5.5,4.4,10,9.9,10c0,0,0,0,0.1,0c0.4,0,0.8,0,1.2-0.1
			c0.1,0,0.3,0,0.4,0c109.6-10.6,197.1-97.5,208-206.6C462.679,250.402,458.579,245.502,453.179,245.002z M262.679,441.202l0.1-23.6
			l19.7,19.7C275.979,438.902,269.379,440.202,262.679,441.202z M304.079,430.702l-41.3-41.3l0.2-28.1l61,61
			C317.479,425.402,310.879,428.302,304.079,430.702z M342.379,412.402l-71.5-71.5c6.7-2.4,13.1-5.4,19.3-9l69,69
			C353.779,405.002,348.179,408.802,342.379,412.402z M374.579,388.002l-67.9-67.9c2.3-1.9,4.5-3.9,6.6-6c2.6-2.6,5.1-5.3,7.5-8.1
			l67.9,67.9C384.179,378.802,379.479,383.502,374.579,388.002z M401.479,358.402l-69.1-69.1c3.6-6.2,6.5-12.7,8.9-19.4l71.6,71.6
			C409.379,347.302,405.579,352.902,401.479,358.402z M422.879,323.202l-58.4-58.4h28.3l38.4,38.4
			C428.779,310.002,425.979,316.702,422.879,323.202z M437.579,281.302l-16.5-16.5h19.8
			C439.979,270.402,438.879,275.902,437.579,281.302z"/>
	</g>
</g>
<g>
</g>
<g>
</g>
<g>
</g>
<g>
</g>
<g>
</g>
<g>
</g>
<g>
</g>
<g>
</g>
<g>
</g>
<g>
</g>
<g>
</g>
<g>
</g>
<g>
</g>
<g>
</g>
<g>
</g>
</svg>
