<svg id="Layer_1" data-name="Layer 1" xmlns="http://www.w3.org/2000/svg" viewBox="0 0 238.4 224"><path d="M238.4,19.2A19.2,19.2,0,0,0,219.2,0H19.2A19.2,19.2,0,0,0,0,19.2V204.8A19.2,19.2,0,0,0,19.2,224h200a19.2,19.2,0,0,0,19.2-19.2ZM72.8,24h34.4V51.2H72.8Zm-24,176H24V172.8H48.8Zm0-148.8H24V24H48.8ZM107.2,200H72.8V172.8h34.4Zm-8.8-65.83V89.83c0-6.6,4.69-9,10.22-5.42l32.18,21c5.53,3.61,5.57,9.53,0,13.14l-32.26,21c-5.52,3.62-10.19,1.18-10.19-5.42ZM165.6,200H131.2V172.8h34.4Zm0-148.8H131.2V24h34.4ZM214.4,200H189.6V172.8h24.8Zm0-148.8H189.6V24h24.8Zm0,0"/></svg>